<?xml version="1.0" encoding="UTF-8" standalone="no"?>
<!-- Generator: Adobe Illustrator 18.0.0, SVG Export Plug-In . SVG Version: 6.00 Build 0)  -->

<svg
   version="1.1"
   id="Capa_1"
   x="0px"
   y="0px"
   viewBox="0 0 233.393 233.393"
   style="enable-background:new 0 0 233.393 233.393;"
   xml:space="preserve"
   sodipodi:docname="batteryColor.svg"
   inkscape:version="1.3.2 (1:1.3.2+202311252150+091e20ef0f)"
   xmlns:inkscape="http://www.inkscape.org/namespaces/inkscape"
   xmlns:sodipodi="http://sodipodi.sourceforge.net/DTD/sodipodi-0.dtd"
   xmlns="http://www.w3.org/2000/svg"
   xmlns:svg="http://www.w3.org/2000/svg"><defs
   id="defs20" /><sodipodi:namedview
   id="namedview20"
   pagecolor="#ffffff"
   bordercolor="#000000"
   borderopacity="0.25"
   inkscape:showpageshadow="2"
   inkscape:pageopacity="0.0"
   inkscape:pagecheckerboard="0"
   inkscape:deskcolor="#d1d1d1"
   inkscape:zoom="1.6045896"
   inkscape:cx="-43.00165"
   inkscape:cy="122.46122"
   inkscape:window-width="1920"
   inkscape:window-height="949"
   inkscape:window-x="1920"
   inkscape:window-y="27"
   inkscape:window-maximized="1"
   inkscape:current-layer="Capa_1" />
<rect
   style="fill:#8bccf0;fill-opacity:1;stroke:#000000;stroke-width:8.91964"
   id="rect20"
   width="99.451027"
   height="112.81477"
   x="18.51812"
   y="73.017197"
   ry="0"
   rx="0" /><rect
   style="fill:#dc2121;fill-opacity:1;stroke:#000000;stroke-width:8.91964"
   id="rect20-3"
   width="99.451027"
   height="112.81477"
   x="113.73195"
   y="71.711868"
   ry="0"
   rx="0" /><g
   id="g5"
   transform="matrix(0.90132024,0,0,0.90132024,9.471337,8.634198)">
	<path
   d="M 225.893,59.673 H 7.5 c -4.143,0 -7.5,3.358 -7.5,7.5 V 196.98 c 0,4.142 3.357,7.5 7.5,7.5 h 218.393 c 4.143,0 7.5,-3.358 7.5,-7.5 V 67.173 c 0,-4.142 -3.358,-7.5 -7.5,-7.5 z m -7.5,129.806 H 15 V 74.673 h 203.393 z"
   id="path1" />
	<path
   d="m 35.184,139.575 h 43.064 c 4.143,0 7.5,-3.358 7.5,-7.5 0,-4.142 -3.357,-7.5 -7.5,-7.5 H 35.184 c -4.143,0 -7.5,3.358 -7.5,7.5 0,4.142 3.357,7.5 7.5,7.5 z"
   id="path2" />
	<path
   d="m 155.145,139.575 h 14.033 v 14.033 c 0,4.142 3.357,7.5 7.5,7.5 4.143,0 7.5,-3.358 7.5,-7.5 v -14.033 h 14.031 c 4.143,0 7.5,-3.358 7.5,-7.5 0,-4.142 -3.357,-7.5 -7.5,-7.5 h -14.031 v -14.031 c 0,-4.142 -3.357,-7.5 -7.5,-7.5 -4.143,0 -7.5,3.358 -7.5,7.5 v 14.031 h -14.033 c -4.143,0 -7.5,3.358 -7.5,7.5 0,4.142 3.357,7.5 7.5,7.5 z"
   id="path3" />
	<path
   d="m 35.184,43.913 h 43.064 c 4.143,0 7.5,-3.358 7.5,-7.5 0,-4.142 -3.357,-7.5 -7.5,-7.5 H 35.184 c -4.143,0 -7.5,3.358 -7.5,7.5 0,4.142 3.357,7.5 7.5,7.5 z"
   id="path4" />
	<path
   d="m 155.145,43.913 h 43.064 c 4.143,0 7.5,-3.358 7.5,-7.5 0,-4.142 -3.357,-7.5 -7.5,-7.5 h -43.064 c -4.143,0 -7.5,3.358 -7.5,7.5 0,4.142 3.357,7.5 7.5,7.5 z"
   id="path5" />
</g>
<g
   id="g6">
</g>
<g
   id="g7">
</g>
<g
   id="g8">
</g>
<g
   id="g9">
</g>
<g
   id="g10">
</g>
<g
   id="g11">
</g>
<g
   id="g12">
</g>
<g
   id="g13">
</g>
<g
   id="g14">
</g>
<g
   id="g15">
</g>
<g
   id="g16">
</g>
<g
   id="g17">
</g>
<g
   id="g18">
</g>
<g
   id="g19">
</g>
<g
   id="g20">
</g>
</svg>
