<?xml version="1.0" encoding="UTF-8" standalone="no"?>
<svg
   height="24"
   viewBox="0 -960 960 960"
   width="24"
   version="1.1"
   id="svg1"
   sodipodi:docname="citycon7.svg"
   inkscape:version="1.3.2 (1:1.3.2+202311252150+091e20ef0f)"
   xmlns:inkscape="http://www.inkscape.org/namespaces/inkscape"
   xmlns:sodipodi="http://sodipodi.sourceforge.net/DTD/sodipodi-0.dtd"
   xmlns:xlink="http://www.w3.org/1999/xlink"
   xmlns="http://www.w3.org/2000/svg"
   xmlns:svg="http://www.w3.org/2000/svg">
  <defs
     id="defs1">
    <linearGradient
       id="swatch1"
       inkscape:swatch="solid">
      <stop
         style="stop-color:#48c1e7;stop-opacity:1;"
         offset="0"
         id="stop1" />
    </linearGradient>
    <linearGradient
       inkscape:collect="always"
       xlink:href="#swatch1"
       id="linearGradient1"
       x1="79.5"
       y1="-480"
       x2="880.5"
       y2="-480"
       gradientUnits="userSpaceOnUse" />
  </defs>
  <sodipodi:namedview
     id="namedview1"
     pagecolor="#ffffff"
     bordercolor="#000000"
     borderopacity="0.25"
     inkscape:showpageshadow="2"
     inkscape:pageopacity="0.0"
     inkscape:pagecheckerboard="0"
     inkscape:deskcolor="#d1d1d1"
     inkscape:zoom="5.516906"
     inkscape:cx="-32.989505"
     inkscape:cy="14.591512"
     inkscape:window-width="1920"
     inkscape:window-height="949"
     inkscape:window-x="1920"
     inkscape:window-y="27"
     inkscape:window-maximized="1"
     inkscape:current-layer="svg1" />
  <path
     d="M400-106v-228l56-160q5-11 14.5-18.5T494-520h292q14 0 24 7.5t14 18.5l56 160v228q0 11-7.5 18.5T854-80h-28q-11 0-18.5-7.5T800-106v-34H480v34q0 11-7.5 18.5T454-80h-28q-11 0-18.5-7.5T400-106Zm80-274h320l-28-80H508l-28 80Zm-20 60v120-120Zm60 100q17 0 28.5-11.5T560-260q0-17-11.5-28.5T520-300q-17 0-28.5 11.5T480-260q0 17 11.5 28.5T520-220Zm240 0q17 0 28.5-11.5T800-260q0-17-11.5-28.5T760-300q-17 0-28.5 11.5T720-260q0 17 11.5 28.5T760-220ZM240-400v-80h80v80h-80Zm200-240v-80h80v80h-80ZM240-240v-80h80v80h-80Zm0 160v-80h80v80h-80ZM80-80v-560h200v-240h400v280h-80v-200H360v240H160v480H80Zm380-120h360v-120H460v120Z"
     id="path1"
     style="stroke:none;stroke-opacity:1;fill:url(#linearGradient1);fill-opacity:1;stroke-width:9;stroke-dasharray:none" />
</svg>
