<?xml version="1.0" encoding="UTF-8" standalone="no"?>
<!-- Generator: Adobe Illustrator 16.0.0, SVG Export Plug-In . SVG Version: 6.00 Build 0)  -->

<svg
   version="1.1"
   id="Capa_1"
   x="0px"
   y="0px"
   width="601.71px"
   height="601.711px"
   viewBox="0 0 601.71 601.711"
   style="enable-background:new 0 0 601.71 601.711;"
   xml:space="preserve"
   sodipodi:docname="HousesColor.svg"
   inkscape:version="1.3.2 (1:1.3.2+202311252150+091e20ef0f)"
   xmlns:inkscape="http://www.inkscape.org/namespaces/inkscape"
   xmlns:sodipodi="http://sodipodi.sourceforge.net/DTD/sodipodi-0.dtd"
   xmlns="http://www.w3.org/2000/svg"
   xmlns:svg="http://www.w3.org/2000/svg"><defs
   id="defs20">
	
	
	
	
	
	
	
</defs><sodipodi:namedview
   id="namedview20"
   pagecolor="#ffffff"
   bordercolor="#000000"
   borderopacity="0.25"
   inkscape:showpageshadow="2"
   inkscape:pageopacity="0.0"
   inkscape:pagecheckerboard="0"
   inkscape:deskcolor="#d1d1d1"
   inkscape:zoom="0.44009747"
   inkscape:cx="-389.6864"
   inkscape:cy="-35.219471"
   inkscape:window-width="1920"
   inkscape:window-height="949"
   inkscape:window-x="1920"
   inkscape:window-y="27"
   inkscape:window-maximized="1"
   inkscape:current-layer="Capa_1" />
<path
   style="fill:#85e665;fill-opacity:1;stroke:#000000;stroke-width:2;stroke-dasharray:none;stroke-opacity:1"
   d="m 379.86875,537.92028 c 0,0 7.26763,-18.60743 16.15688,-25.91986 8.88924,-7.31242 8.88924,-7.31242 8.88924,-7.31242 l -12.79068,31.68974 c 0,0 -17.11106,12.77224 0,0 17.11105,-12.77225 30.47826,-16.5688 30.47826,-16.5688 l -22.41483,26.45208 c 0,0 -32.11223,5.56686 0,0 32.11223,-5.56686 41.40815,-2.65801 41.40815,-2.65801 l -31.18688,15.99634 c 0,0 -29.23989,2.55196 0,0 29.23989,-2.55196 43.46527,3.45392 43.46527,3.45392 l -47.32434,13.61683 c 0,0 -33.10721,-6.11725 0,0 33.1072,6.11725 46.03782,9.18025 46.03782,9.18025 l -72.66417,0.84957"
   id="path22" /><path
   style="fill:#85e665;fill-opacity:1;stroke:#000000;stroke-width:2;stroke-dasharray:none;stroke-opacity:1"
   d="m 77.397647,537.99642 c 0,0 -7.26763,-18.60743 -16.156885,-25.91986 -8.88924,-7.31242 -8.88924,-7.31242 -8.88924,-7.31242 l 12.79068,31.68974 c 0,0 17.111065,12.77224 0,0 -17.11105,-12.77225 -30.47826,-16.5688 -30.47826,-16.5688 l 22.41483,26.45208 c 0,0 32.112235,5.56686 0,0 -32.11223,-5.56686 -41.40815,-2.65801 -41.40815,-2.65801 l 31.18688,15.99634 c 0,0 29.239895,2.55196 0,0 -29.23989,-2.55196 -43.465269,3.45392 -43.465269,3.45392 l 47.324339,13.61683 c 0,0 33.107215,-6.11725 0,0 -33.1072,6.11725 -46.037819,9.18025 -46.037819,9.18025 l 72.664174,0.84957"
   id="path22-9" /><path
   style="fill:#85e665;fill-opacity:1;stroke:#000000;stroke-width:0.969179;stroke-dasharray:none;stroke-opacity:1"
   d="m 64.085396,194.94609 c 0,0 -3.521817,-9.01696 -7.829453,-12.56049 -4.307631,-3.54352 -4.307631,-3.54352 -4.307631,-3.54352 l 6.198228,15.35651 c 0,0 8.291838,6.18929 0,0 -8.291834,-6.1893 -14.769442,-8.02906 -14.769442,-8.02906 l 10.861989,12.81839 c 0,0 15.561246,2.69764 0,0 -15.561248,-2.69764 -20.065953,-1.28804 -20.065953,-1.28804 l 15.112834,7.75166 c 0,0 14.16934,1.23665 0,0 -14.169343,-1.23666 -21.062811,1.67373 -21.062811,1.67373 l 22.932875,6.59857 c 0,0 16.043403,-2.96435 0,0 -16.0434,2.96436 -22.309441,4.44865 -22.309441,4.44865 l 35.212288,0.4117"
   id="path22-9-7" /><a
   id="a22"
   transform="matrix(0.66277713,0,0,0.66277713,110.48692,420.76221)"><path
     d="m 707.4997,-336.71105 c 8.425,6.397 20.426,4.705 26.795,-3.691 6.378,-8.424 4.724,-20.416 -3.691,-26.794 l -169.478,-128.425 c -6.799,-5.145 -16.161,-5.173 -22.998,-0.086 l -178.952,133.693 c -8.463,6.321 -10.194,18.312 -3.873,26.775 3.758,5.021 9.515,7.679 15.338,7.679 3.978,0 7.994,-1.243 11.427,-3.796 l 167.421,-125.077 z"
     id="path1-9"
     style="fill:#b32c16;fill-opacity:1;stroke:#000000;stroke-opacity:1" /><path
     d="m 569.0437,-250.73505 h 76.5 v 105.188 h 47.812 v -181.057 l -145.062,-107.367 -151.375,107.367 v 181.057 h 172.125 z m -57.375,19.125 h -76.5 v -66.938 h 76.5 z"
     id="path5-2"
     style="fill:#f9f0df;fill-opacity:1;stroke:#000000;stroke-width:10;stroke-dasharray:none;stroke-opacity:1" /><rect
     style="fill:#bdfffb;fill-opacity:1;stroke:#000000;stroke-width:10.0864;stroke-dasharray:none;stroke-opacity:1"
     id="rect21-0"
     width="76.995529"
     height="67.41716"
     x="434.93124"
     y="-299.33176"
     ry="33.70858"
     rx="0" /><rect
     style="fill:#b77b59;fill-opacity:1;stroke:#000000;stroke-width:12.3892;stroke-dasharray:none;stroke-opacity:1"
     id="rect21-7-2"
     width="75.699532"
     height="103.45607"
     x="570.27069"
     y="-250.241"
     ry="51.728039"
     rx="0" /><rect
     style="fill:#b77b59;fill-opacity:1;stroke:#000000;stroke-width:3.34399;stroke-dasharray:none;stroke-opacity:1"
     id="rect22-3"
     width="11.486143"
     height="10.884281"
     x="620.46863"
     y="-200.19189"
     rx="5.7430716"
     ry="5.2750115" /></a><path
   d="m 208.3236,129.92211 c 3.86718,2.9363 9.37579,2.15965 12.29924,-1.69422 2.92758,-3.86672 2.16837,-9.37119 -1.69422,-12.29877 L 141.13615,56.980482 c -3.12082,-2.36162 -7.41809,-2.374473 -10.55636,-0.0395 L 48.438641,118.3077 c -3.88462,2.90142 -4.67917,8.40543 -1.77775,12.29005 1.72496,2.3047 4.3675,3.52476 7.040316,3.52476 1.82595,0 3.66935,-0.57055 5.24514,-1.74241 L 135.79463,74.96825 Z"
   id="path1-7"
   style="fill:#b32c16;fill-opacity:1;stroke:#000000;stroke-width:0.459012;stroke-opacity:1" /><path
   d="m 144.77061,169.38614 h 35.11443 v 48.28258 h 21.9463 V 134.56134 L 135.24611,85.27858 65.763137,134.56134 v 83.10738 h 79.007473 z m -26.33582,8.77861 H 83.320347 v -30.72536 h 35.114443 z"
   id="path5-5"
   style="fill:#f9f0df;fill-opacity:1;stroke:#000000;stroke-width:4.59012;stroke-dasharray:none;stroke-opacity:1" /><rect
   style="fill:#bdfffb;fill-opacity:1;stroke:#000000;stroke-width:4.62978;stroke-dasharray:none;stroke-opacity:1"
   id="rect21-9"
   width="35.341888"
   height="30.945299"
   x="83.211349"
   y="147.07967"
   ry="15.47265"
   rx="0" /><rect
   style="fill:#b77b59;fill-opacity:1;stroke:#000000;stroke-width:5.68679;stroke-dasharray:none;stroke-opacity:1"
   id="rect21-7-22"
   width="34.747009"
   height="47.487598"
   x="145.33382"
   y="169.61292"
   ry="23.743801"
   rx="0" /><rect
   style="fill:#b77b59;fill-opacity:1;stroke:#000000;stroke-width:1.53493;stroke-dasharray:none;stroke-opacity:1"
   id="rect22-8"
   width="5.2722797"
   height="4.9960179"
   x="168.37527"
   y="192.58606"
   rx="2.6361399"
   ry="2.4212947" /><path
   d="m 390.568,391.422 c 8.425,6.397 20.426,4.705 26.795,-3.691 6.378,-8.424 4.724,-20.416 -3.691,-26.794 L 244.194,232.512 c -6.799,-5.145 -16.161,-5.173 -22.998,-0.086 L 42.244,366.119 c -8.463,6.321 -10.194,18.312 -3.873,26.775 3.758,5.021 9.515,7.679 15.338,7.679 3.978,0 7.994,-1.243 11.427,-3.796 L 232.557,271.7 Z"
   id="path1"
   style="fill:#b32c16;fill-opacity:1;stroke:#000000;stroke-opacity:1" /><path
   d="m 252.112,477.398 h 76.5 v 105.188 h 47.812 V 401.529 L 231.362,294.162 79.987,401.529 v 181.057 h 172.125 z m -57.375,19.125 h -76.5 v -66.938 h 76.5 z"
   id="path5"
   style="fill:#f9f0df;fill-opacity:1;stroke:#000000;stroke-width:10;stroke-dasharray:none;stroke-opacity:1" />
<g
   id="g6">
</g>
<g
   id="g7">
</g>
<g
   id="g8">
</g>
<g
   id="g9">
</g>
<g
   id="g10">
</g>
<g
   id="g11">
</g>
<g
   id="g12">
</g>
<g
   id="g13">
</g>
<g
   id="g14">
</g>
<g
   id="g15">
</g>
<g
   id="g16">
</g>
<g
   id="g17">
</g>
<g
   id="g18">
</g>
<g
   id="g19">
</g>
<g
   id="g20">
</g>
<rect
   style="fill:#bdfffb;fill-opacity:1;stroke:#000000;stroke-width:10.0864;stroke-dasharray:none;stroke-opacity:1"
   id="rect21"
   width="76.995529"
   height="67.41716"
   x="117.99955"
   y="428.8013"
   ry="33.70858"
   rx="0" /><rect
   style="fill:#b77b59;fill-opacity:1;stroke:#000000;stroke-width:12.3892;stroke-dasharray:none;stroke-opacity:1"
   id="rect21-7"
   width="75.699532"
   height="103.45607"
   x="253.339"
   y="477.89206"
   ry="51.728039"
   rx="0" /><rect
   style="fill:#b77b59;fill-opacity:1;stroke:#000000;stroke-width:3.34399;stroke-dasharray:none;stroke-opacity:1"
   id="rect22"
   width="11.486143"
   height="10.884281"
   x="303.53696"
   y="527.94116"
   rx="5.7430716"
   ry="5.2750115" /></svg>
