<?xml version="1.0" encoding="UTF-8" standalone="no"?>
<!-- Generator: Adobe Illustrator 16.0.0, SVG Export Plug-In . SVG Version: 6.00 Build 0)  -->

<svg
   version="1.1"
   id="Capa_1"
   x="0px"
   y="0px"
   width="106.583px"
   height="106.583px"
   viewBox="0 0 106.583 106.583"
   style="enable-background:new 0 0 106.583 106.583;"
   xml:space="preserve"
   sodipodi:docname="Logo1.svg"
   inkscape:version="1.1.2 (0a00cf5339, 2022-02-04)"
   xmlns:inkscape="http://www.inkscape.org/namespaces/inkscape"
   xmlns:sodipodi="http://sodipodi.sourceforge.net/DTD/sodipodi-0.dtd"
   xmlns:xlink="http://www.w3.org/1999/xlink"
   xmlns="http://www.w3.org/2000/svg"
   xmlns:svg="http://www.w3.org/2000/svg"><defs
   id="defs2099"><linearGradient
     inkscape:collect="always"
     id="linearGradient44599"><stop
       style="stop-color:#ff9300;stop-opacity:1;"
       offset="0"
       id="stop44595" /><stop
       style="stop-color:#ff9300;stop-opacity:0;"
       offset="1"
       id="stop44597" /></linearGradient><linearGradient
     inkscape:collect="always"
     id="linearGradient44591"><stop
       style="stop-color:#79e88a;stop-opacity:1;"
       offset="0"
       id="stop44587" /><stop
       style="stop-color:#79e88a;stop-opacity:0;"
       offset="1"
       id="stop44589" /></linearGradient><linearGradient
     inkscape:collect="always"
     id="linearGradient44583"><stop
       style="stop-color:#0d999c;stop-opacity:1;"
       offset="0"
       id="stop44579" /><stop
       style="stop-color:#0d999c;stop-opacity:0;"
       offset="1"
       id="stop44581" /></linearGradient><linearGradient
     inkscape:collect="always"
     id="linearGradient44263"><stop
       style="stop-color:#ff6445;stop-opacity:1;"
       offset="0"
       id="stop44259" /><stop
       style="stop-color:#ff6445;stop-opacity:0;"
       offset="1"
       id="stop44261" /></linearGradient><linearGradient
     inkscape:collect="always"
     id="linearGradient44131"><stop
       style="stop-color:#0d9000;stop-opacity:1;"
       offset="0"
       id="stop44127" /><stop
       style="stop-color:#0d9000;stop-opacity:0;"
       offset="1"
       id="stop44129" /></linearGradient><linearGradient
     inkscape:collect="always"
     id="linearGradient42088"><stop
       style="stop-color:#6d00c5;stop-opacity:1;"
       offset="0"
       id="stop42084" /><stop
       style="stop-color:#6d00c5;stop-opacity:0;"
       offset="1"
       id="stop42086" /></linearGradient><linearGradient
     inkscape:collect="always"
     xlink:href="#linearGradient42088"
     id="linearGradient42090"
     x1="42.194809"
     y1="56.599037"
     x2="65.640297"
     y2="42.537888"
     gradientUnits="userSpaceOnUse" /><linearGradient
     inkscape:collect="always"
     xlink:href="#linearGradient44131"
     id="linearGradient44133"
     x1="54.124767"
     y1="107.17763"
     x2="107.06892"
     y2="53.599945"
     gradientUnits="userSpaceOnUse" /><linearGradient
     inkscape:collect="always"
     xlink:href="#linearGradient44263"
     id="linearGradient44265"
     x1="62.92815"
     y1="37.889481"
     x2="98.176552"
     y2="2.8921115"
     gradientUnits="userSpaceOnUse" /><linearGradient
     inkscape:collect="always"
     xlink:href="#linearGradient44583"
     id="linearGradient44585"
     x1="8.8698082"
     y1="38.283455"
     x2="45.649815"
     y2="2.0343091"
     gradientUnits="userSpaceOnUse" /><linearGradient
     inkscape:collect="always"
     xlink:href="#linearGradient44591"
     id="linearGradient44593"
     x1="0.48718888"
     y1="47.708076"
     x2="18.248359"
     y2="47.708076"
     gradientUnits="userSpaceOnUse" /><linearGradient
     inkscape:collect="always"
     xlink:href="#linearGradient44599"
     id="linearGradient44601"
     x1="-2.6086709"
     y1="103.20002"
     x2="33.11113"
     y2="65.958443"
     gradientUnits="userSpaceOnUse" /></defs><sodipodi:namedview
   id="namedview2097"
   pagecolor="#ffffff"
   bordercolor="#666666"
   borderopacity="1.0"
   inkscape:pageshadow="2"
   inkscape:pageopacity="0.0"
   inkscape:pagecheckerboard="0"
   showgrid="false"
   inkscape:zoom="2.2799133"
   inkscape:cx="-9.2108766"
   inkscape:cy="57.239019"
   inkscape:window-width="1366"
   inkscape:window-height="632"
   inkscape:window-x="0"
   inkscape:window-y="27"
   inkscape:window-maximized="1"
   inkscape:current-layer="Capa_1" />
<g
   id="g2064"
   transform="matrix(0.19363029,0,0,0.19363029,17.82663,8.0938897)">
	<g
   id="g2062">
		<polygon
   points="79.76,44.745 76.698,33.937 61.4,33.937 61.4,44.745 "
   id="polygon2028" />
		<polygon
   points="79.838,48.249 61.486,48.249 61.486,59.051 82.905,59.051 "
   id="polygon2030" />
		<path
   d="M 79.401,27.139 H 12.688 c -1.934,0 -3.511,1.273 -3.511,2.828 L 0,77.449 c 0,1.561 1.572,2.83 3.511,2.83 h 5.314 4.603 65.575 4.292 7.727 c 1.938,0 3.512,-1.27 3.512,-2.83 L 82.905,29.967 c 0,-1.555 -1.571,-2.828 -3.504,-2.828 z M 4.211,76.883 13.389,30.535 h 65.307 l 11.629,46.348 z"
   id="path2032" />
		<polygon
   points="13.466,44.745 33.048,44.745 33.048,33.937 16.529,33.937 "
   id="polygon2034" />
		<rect
   x="37.521"
   y="33.937"
   width="19.577999"
   height="10.804"
   id="rect2036" />
		<polygon
   points="33.131,48.249 13.55,48.249 10.487,59.051 33.131,59.051 "
   id="polygon2038" />
		<rect
   x="37.594002"
   y="48.249001"
   width="19.583"
   height="10.803"
   id="rect2040" />
		<polygon
   points="33.131,62.671 11.101,62.671 8.042,73.479 33.131,73.479 "
   id="polygon2042" />
		<rect
   x="37.594002"
   y="62.671001"
   width="19.583"
   height="10.808"
   id="rect2044" />
		<polygon
   points="85.964,73.479 82.905,62.671 61.486,62.671 61.486,73.479 "
   id="polygon2046" />
		<polygon
   points="60.148,98.173 50.819,98.173 50.819,82.793 43.078,82.793 43.078,98.173 33.983,98.173 33.983,103.409 60.148,103.409 "
   id="polygon2048" />
		<path
   d="m 81.557,24.858 c 1.93,0 3.504,1.268 3.504,2.829 l 3.271,13.352 c 3.196,-2.658 5.28,-6.617 5.28,-11.099 0,-8.001 -6.484,-14.487 -14.492,-14.487 -6.205,0 -11.461,3.925 -13.518,9.409 h 15.954 v -0.004 z"
   id="path2050" />
		<path
   d="m 106.368,29.61 -7.953,-2.137 c -0.1,-0.029 -0.213,-0.007 -0.295,0.06 -0.085,0.063 -0.13,0.161 -0.13,0.269 v 4.276 c 0,0.104 0.045,0.207 0.13,0.27 0.082,0.067 0.195,0.084 0.295,0.055 l 7.953,-2.137 c 0.287,-0.081 0.287,-0.576 0,-0.656 z"
   id="path2052" />
		<path
   d="m 76.981,11.77 h 4.281 c 0.106,0 0.205,-0.049 0.268,-0.133 0.062,-0.083 0.085,-0.19 0.062,-0.291 L 79.449,3.394 C 79.374,3.1 78.878,3.1 78.799,3.394 l -2.139,7.952 c -0.03,0.101 -0.007,0.21 0.059,0.291 0.061,0.084 0.163,0.133 0.262,0.133 z"
   id="path2054" />
		<path
   d="m 93.48,18.603 c 0.075,0.074 0.178,0.11 0.284,0.096 0.099,-0.01 0.194,-0.073 0.249,-0.166 l 4.106,-7.134 c 0.151,-0.264 -0.198,-0.614 -0.465,-0.46 l -7.129,4.111 c -0.089,0.048 -0.153,0.144 -0.167,0.245 -0.014,0.104 0.023,0.21 0.096,0.284 z"
   id="path2056" />
		<path
   d="M 92.371,41.343 C 92.32,41.256 92.227,41.193 92.128,41.179 92.023,41.163 91.92,41.2 91.845,41.273 l -2.775,2.775 0.249,1.033 6.701,3.858 c 0.264,0.15 0.616,-0.2 0.465,-0.462 z"
   id="path2058" />
		<path
   d="m 62.848,18.708 c 0.096,0.007 0.201,-0.032 0.273,-0.106 l 3.025,-3.023 c 0.071,-0.074 0.113,-0.176 0.099,-0.277 0,-0.097 -0.062,-0.181 -0.144,-0.228 L 59.504,11.5 c -0.239,-0.13 -0.596,0.217 -0.462,0.462 l 3.576,6.596 c 0.052,0.091 0.131,0.14 0.23,0.15 z"
   id="path2060" />
	</g>
</g>
<g
   id="g2066">
</g>
<g
   id="g2068">
</g>
<g
   id="g2070">
</g>
<g
   id="g2072">
</g>
<g
   id="g2074">
</g>
<g
   id="g2076">
</g>
<g
   id="g2078">
</g>
<g
   id="g2080">
</g>
<g
   id="g2082">
</g>
<g
   id="g2084">
</g>
<g
   id="g2086">
</g>
<g
   id="g2088">
</g>
<g
   id="g2090">
</g>
<g
   id="g2092">
</g>
<g
   id="g2094">
</g>
<ellipse
   style="fill:none;stroke:#231f20;stroke-width:0.933294;stroke-dasharray:none;stroke-opacity:1"
   id="path29"
   cx="7.638895"
   cy="48.116268"
   rx="3.0048912"
   ry="2.8833098" /><ellipse
   style="fill:none;stroke:#b3b3b3;stroke-width:0.933294;stroke-dasharray:none;stroke-opacity:1"
   id="path29-3"
   cx="10.66591"
   cy="48.121357"
   rx="3.0048912"
   ry="2.8833098" /><path
   style="fill:none;stroke:#231f20;stroke-width:1.3526;stroke-dasharray:none;stroke-opacity:1"
   d="m 12.006991,48.252127 3.721806,-0.03707"
   id="path30" /><g
   id="g36500"
   transform="matrix(0.70055924,0,0,0.70055924,118.29261,-12.873939)"><rect
     style="fill:#000000;fill-opacity:1;stroke:none;stroke-width:1.50542;stroke-dasharray:none;stroke-opacity:1;paint-order:fill markers stroke"
     id="rect13-6"
     width="4.1426373"
     height="15.888791"
     x="-45.942947"
     y="135.22481"
     ry="0.10407598" /><path
     style="fill:#000000;fill-opacity:1;stroke:none;stroke-width:1.43543;stroke-dasharray:none;stroke-opacity:1"
     d="m -46.480996,133.98199 -2.045349,13.13718 3.056931,0.7492 3.255663,-12.771"
     id="path13-1"
     sodipodi:nodetypes="cccc" /><path
     style="fill:#000000;fill-opacity:1;stroke:none;stroke-width:1.43543;stroke-dasharray:none;stroke-opacity:1"
     d="m -43.690641,129.86404 -10.354455,-8.33992 -2.17729,2.27278 9.432186,9.20498"
     id="path13-9-2"
     sodipodi:nodetypes="cccc" /><path
     style="fill:#000000;fill-opacity:1;stroke:none;stroke-width:1.43543;stroke-dasharray:none;stroke-opacity:1;paint-order:markers stroke fill"
     d="m -41.137754,134.34442 12.399812,-4.79726 -0.879649,-3.02199 -12.687842,3.56603"
     id="path13-9-7-9"
     sodipodi:nodetypes="cccc" /><circle
     style="fill:#000000;fill-opacity:1;stroke:#ffffff;stroke-width:1.36774;stroke-dasharray:none;stroke-opacity:1"
     id="path12-3"
     cx="-43.973213"
     cy="132.95529"
     r="2.5273814" /><rect
     style="fill:#000000;fill-opacity:1;stroke:#555555;stroke-width:0.594908;stroke-dasharray:none;stroke-opacity:1;paint-order:fill markers stroke"
     id="rect14-3-1"
     width="5.3909235"
     height="0.38967407"
     x="-46.472324"
     y="150.8054"
     ry="0.19483703" /><rect
     style="fill:#7e7e7e;fill-opacity:1;stroke:#7e7e7e;stroke-width:1.32522;stroke-dasharray:none;stroke-opacity:1;paint-order:fill markers stroke"
     id="rect14-9"
     width="6.1084294"
     height="1.7065197"
     x="-46.771687"
     y="151.57382"
     ry="0" /><path
     style="fill:#000000;fill-opacity:1;stroke:#b6b6b6;stroke-width:0.143543;stroke-dasharray:none;stroke-opacity:1;paint-order:fill markers stroke"
     d="m -46.738195,150.8926 h 5.909378"
     id="path15-4" /><rect
     style="fill:#000000;fill-opacity:1;stroke:none;stroke-width:2.00633;stroke-dasharray:none;stroke-opacity:1;paint-order:fill markers stroke"
     id="rect13"
     width="5.5210886"
     height="21.175741"
     x="-63.529137"
     y="129.38914"
     ry="0.13870698" /><path
     style="fill:#000000;fill-opacity:1;stroke:none;stroke-width:1.91307;stroke-dasharray:none;stroke-opacity:1"
     d="m -64.246205,127.73278 -2.725934,17.50855 4.074116,0.99849 4.338973,-17.02052"
     id="path13"
     sodipodi:nodetypes="cccc" /><path
     style="fill:#000000;fill-opacity:1;stroke:none;stroke-width:1.91307;stroke-dasharray:none;stroke-opacity:1"
     d="m -60.527365,122.24459 -13.799877,-11.115 -2.901773,3.02904 12.570713,12.26792"
     id="path13-9"
     sodipodi:nodetypes="cccc" /><path
     style="fill:#000000;fill-opacity:1;stroke:none;stroke-width:1.91307;stroke-dasharray:none;stroke-opacity:1;paint-order:markers stroke fill"
     d="m -57.125012,128.21581 16.525809,-6.39354 -1.815431,-4.02753 -16.266598,4.7526"
     id="path13-9-7"
     sodipodi:nodetypes="cccc" /><circle
     style="fill:#000000;fill-opacity:1;stroke:#ffffff;stroke-width:1.82286;stroke-dasharray:none;stroke-opacity:1"
     id="path12"
     cx="-60.903969"
     cy="126.36447"
     r="3.3683608" /><rect
     style="fill:#000000;fill-opacity:1;stroke:#555555;stroke-width:0.792861;stroke-dasharray:none;stroke-opacity:1;paint-order:fill markers stroke"
     id="rect14-3"
     width="7.1847396"
     height="0.51933706"
     x="-64.234642"
     y="150.15414"
     ry="0.25966853" /><rect
     style="fill:#7e7e7e;fill-opacity:1;stroke:#7e7e7e;stroke-width:1.76619;stroke-dasharray:none;stroke-opacity:1;paint-order:fill markers stroke"
     id="rect14"
     width="8.1409922"
     height="2.2743592"
     x="-64.633629"
     y="151.17825"
     ry="0" /><path
     style="fill:#000000;fill-opacity:1;stroke:#b6b6b6;stroke-width:0.191307;stroke-dasharray:none;stroke-opacity:1;paint-order:fill markers stroke"
     d="m -64.588978,150.27035 h 7.875693"
     id="path15" /></g><g
   id="g5"
   transform="matrix(0.08406322,0,0,0.08406322,70.835864,10.259413)"><path
     d="M 225.893,59.673 H 7.5 c -4.143,0 -7.5,3.358 -7.5,7.5 V 196.98 c 0,4.142 3.357,7.5 7.5,7.5 h 218.393 c 4.143,0 7.5,-3.358 7.5,-7.5 V 67.173 c 0,-4.142 -3.358,-7.5 -7.5,-7.5 z m -7.5,129.806 H 15 V 74.673 h 203.393 z"
     id="path1" /><path
     d="m 35.184,139.575 h 43.064 c 4.143,0 7.5,-3.358 7.5,-7.5 0,-4.142 -3.357,-7.5 -7.5,-7.5 H 35.184 c -4.143,0 -7.5,3.358 -7.5,7.5 0,4.142 3.357,7.5 7.5,7.5 z"
     id="path2" /><path
     d="m 155.145,139.575 h 14.033 v 14.033 c 0,4.142 3.357,7.5 7.5,7.5 4.143,0 7.5,-3.358 7.5,-7.5 v -14.033 h 14.031 c 4.143,0 7.5,-3.358 7.5,-7.5 0,-4.142 -3.357,-7.5 -7.5,-7.5 h -14.031 v -14.031 c 0,-4.142 -3.357,-7.5 -7.5,-7.5 -4.143,0 -7.5,3.358 -7.5,7.5 v 14.031 h -14.033 c -4.143,0 -7.5,3.358 -7.5,7.5 0,4.142 3.357,7.5 7.5,7.5 z"
     id="path3" /><path
     d="m 35.184,43.913 h 43.064 c 4.143,0 7.5,-3.358 7.5,-7.5 0,-4.142 -3.357,-7.5 -7.5,-7.5 H 35.184 c -4.143,0 -7.5,3.358 -7.5,7.5 0,4.142 3.357,7.5 7.5,7.5 z"
     id="path4" /><path
     d="m 155.145,43.913 h 43.064 c 4.143,0 7.5,-3.358 7.5,-7.5 0,-4.142 -3.357,-7.5 -7.5,-7.5 h -43.064 c -4.143,0 -7.5,3.358 -7.5,7.5 0,4.142 3.357,7.5 7.5,7.5 z"
     id="path5" /></g><g
   id="g36548"
   transform="translate(-13.348093,-46.072614)"><path
     style="fill:#ffffff;fill-opacity:1;stroke:#0a0a0a;stroke-width:1.05539;stroke-linecap:butt;stroke-linejoin:round;stroke-miterlimit:4;stroke-dasharray:none;stroke-opacity:1"
     d="m 37.141797,121.82262 -1.021063,-1.04053 h 9.05437 l 1.738937,1.02311 h -9.799313"
     id="path96311-5"
     sodipodi:nodetypes="ccccc" /><path
     style="fill:#ffffff;fill-opacity:1;stroke:#0a0a0a;stroke-width:1.176;stroke-linecap:butt;stroke-linejoin:round;stroke-miterlimit:4;stroke-dasharray:none;stroke-opacity:1"
     d="m 36.120734,120.78209 1.051341,1.04999 -0.01104,16.07056 -1.087747,-1.24753 z"
     id="path102949-3"
     sodipodi:nodetypes="ccccc" /><rect
     style="fill:#ffffff;fill-opacity:1;stroke:#0a0a0a;stroke-width:1.05539;stroke-linejoin:round;stroke-miterlimit:4;stroke-dasharray:none;stroke-dashoffset:0;stroke-opacity:1"
     id="rect96190-5"
     width="9.8725529"
     height="16.081602"
     x="37.16103"
     y="121.82102" /><rect
     style="fill:#000000;fill-opacity:1;stroke:#0a0a0a;stroke-width:0.272693;stroke-miterlimit:4;stroke-dasharray:none;stroke-dashoffset:0;stroke-opacity:1"
     id="rect107993-62"
     width="2.993504"
     height="1.2598867"
     x="38.670616"
     y="123.64053" /><rect
     style="fill:#000000;fill-opacity:1;stroke:#0a0a0a;stroke-width:0.272693;stroke-miterlimit:4;stroke-dasharray:none;stroke-dashoffset:0;stroke-opacity:1"
     id="rect107993-9-9"
     width="2.993504"
     height="1.2598867"
     x="42.976768"
     y="123.64053" /><rect
     style="fill:#000000;fill-opacity:1;stroke:#0a0a0a;stroke-width:0.272693;stroke-miterlimit:4;stroke-dasharray:none;stroke-dashoffset:0;stroke-opacity:1"
     id="rect107993-6-1"
     width="2.993504"
     height="1.2598867"
     x="38.659126"
     y="125.68545" /><rect
     style="fill:#000000;fill-opacity:1;stroke:#0a0a0a;stroke-width:0.272693;stroke-miterlimit:4;stroke-dasharray:none;stroke-dashoffset:0;stroke-opacity:1"
     id="rect107993-9-3-2"
     width="2.993504"
     height="1.2598867"
     x="42.965275"
     y="125.68545" /><rect
     style="fill:#000000;fill-opacity:1;stroke:#0a0a0a;stroke-width:0.272693;stroke-miterlimit:4;stroke-dasharray:none;stroke-dashoffset:0;stroke-opacity:1"
     id="rect107993-8-7"
     width="2.993504"
     height="1.2598867"
     x="38.659126"
     y="125.68545" /><rect
     style="fill:#000000;fill-opacity:1;stroke:#0a0a0a;stroke-width:0.272693;stroke-miterlimit:4;stroke-dasharray:none;stroke-dashoffset:0;stroke-opacity:1"
     id="rect107993-9-5-09"
     width="2.993504"
     height="1.2598867"
     x="42.965275"
     y="125.68545" /><rect
     style="fill:#000000;fill-opacity:1;stroke:#0a0a0a;stroke-width:0.272693;stroke-miterlimit:4;stroke-dasharray:none;stroke-dashoffset:0;stroke-opacity:1"
     id="rect107993-6-6-3"
     width="2.993504"
     height="1.2598867"
     x="38.647636"
     y="127.73038" /><rect
     style="fill:#000000;fill-opacity:1;stroke:#0a0a0a;stroke-width:0.272693;stroke-miterlimit:4;stroke-dasharray:none;stroke-dashoffset:0;stroke-opacity:1"
     id="rect107993-9-3-1-6"
     width="2.993504"
     height="1.2598867"
     x="42.953789"
     y="127.73038" /><rect
     style="fill:#000000;fill-opacity:1;stroke:#0a0a0a;stroke-width:0.272693;stroke-miterlimit:4;stroke-dasharray:none;stroke-dashoffset:0;stroke-opacity:1"
     id="rect107993-8-1-0"
     width="2.993504"
     height="1.2598867"
     x="38.647636"
     y="127.73038" /><rect
     style="fill:#000000;fill-opacity:1;stroke:#0a0a0a;stroke-width:0.272693;stroke-miterlimit:4;stroke-dasharray:none;stroke-dashoffset:0;stroke-opacity:1"
     id="rect107993-9-5-5-6"
     width="2.993504"
     height="1.2598867"
     x="42.953789"
     y="127.73038" /><rect
     style="fill:#000000;fill-opacity:1;stroke:#0a0a0a;stroke-width:0.272693;stroke-miterlimit:4;stroke-dasharray:none;stroke-dashoffset:0;stroke-opacity:1"
     id="rect107993-6-6-9-2"
     width="2.993504"
     height="1.2598867"
     x="38.636147"
     y="129.7753" /><rect
     style="fill:#000000;fill-opacity:1;stroke:#0a0a0a;stroke-width:0.272693;stroke-miterlimit:4;stroke-dasharray:none;stroke-dashoffset:0;stroke-opacity:1"
     id="rect107993-9-3-1-8-6"
     width="2.993504"
     height="1.2598867"
     x="42.942299"
     y="129.7753" /><rect
     style="fill:#000000;fill-opacity:1;stroke:#0a0a0a;stroke-width:0.272693;stroke-miterlimit:4;stroke-dasharray:none;stroke-dashoffset:0;stroke-opacity:1"
     id="rect107993-8-4-1"
     width="2.993504"
     height="1.2598867"
     x="38.636147"
     y="129.7753" /><rect
     style="fill:#000000;fill-opacity:1;stroke:#0a0a0a;stroke-width:0.272693;stroke-miterlimit:4;stroke-dasharray:none;stroke-dashoffset:0;stroke-opacity:1"
     id="rect107993-9-5-8-8"
     width="2.993504"
     height="1.2598867"
     x="42.942299"
     y="129.7753" /><rect
     style="fill:#000000;fill-opacity:1;stroke:#0a0a0a;stroke-width:0.272693;stroke-miterlimit:4;stroke-dasharray:none;stroke-dashoffset:0;stroke-opacity:1"
     id="rect107993-6-6-1-7"
     width="2.993504"
     height="1.2598867"
     x="38.624657"
     y="131.82022" /><rect
     style="fill:#000000;fill-opacity:1;stroke:#0a0a0a;stroke-width:0.272693;stroke-miterlimit:4;stroke-dasharray:none;stroke-dashoffset:0;stroke-opacity:1"
     id="rect107993-9-3-1-0-9"
     width="2.993504"
     height="1.2598867"
     x="42.930809"
     y="131.82022" /><rect
     style="fill:#000000;fill-opacity:1;stroke:#0a0a0a;stroke-width:0.272693;stroke-miterlimit:4;stroke-dasharray:none;stroke-dashoffset:0;stroke-opacity:1"
     id="rect107993-8-3-2"
     width="2.993504"
     height="1.2598867"
     x="38.624657"
     y="131.82022" /><rect
     style="fill:#000000;fill-opacity:1;stroke:#0a0a0a;stroke-width:0.272693;stroke-miterlimit:4;stroke-dasharray:none;stroke-dashoffset:0;stroke-opacity:1"
     id="rect107993-9-5-0-0"
     width="2.993504"
     height="1.2598867"
     x="42.930809"
     y="131.82022" /><rect
     style="fill:#000000;fill-opacity:1;stroke:#0a0a0a;stroke-width:0.272693;stroke-miterlimit:4;stroke-dasharray:none;stroke-dashoffset:0;stroke-opacity:1"
     id="rect107993-6-6-4-2"
     width="2.993504"
     height="1.2598867"
     x="38.613171"
     y="133.86516" /><rect
     style="fill:#000000;fill-opacity:1;stroke:#0a0a0a;stroke-width:0.272693;stroke-miterlimit:4;stroke-dasharray:none;stroke-dashoffset:0;stroke-opacity:1"
     id="rect107993-9-3-1-4-3"
     width="2.993504"
     height="1.2598867"
     x="42.919319"
     y="133.86516" /><path
     style="fill:#ffffff;fill-opacity:1;stroke:#0a0a0a;stroke-width:1.46825;stroke-linecap:butt;stroke-linejoin:round;stroke-miterlimit:4;stroke-dasharray:none;stroke-opacity:1"
     d="m 22.559319,115.40812 -1.420497,-1.44758 h 12.596401 l 2.4192,1.42336 H 22.521662"
     id="path96311"
     sodipodi:nodetypes="ccccc" /><path
     style="fill:#ffffff;fill-opacity:1;stroke:#0a0a0a;stroke-width:1.63605;stroke-linecap:butt;stroke-linejoin:round;stroke-miterlimit:4;stroke-dasharray:none;stroke-opacity:1"
     d="m 21.138822,113.96054 1.46262,1.46075 -0.01536,22.35729 -1.513269,-1.73556 z"
     id="path102949"
     sodipodi:nodetypes="ccccc" /><rect
     style="fill:#ffffff;fill-opacity:1;stroke:#0a0a0a;stroke-width:1.46825;stroke-linejoin:round;stroke-miterlimit:4;stroke-dasharray:none;stroke-dashoffset:0;stroke-opacity:1"
     id="rect96190"
     width="13.734653"
     height="22.372658"
     x="22.586081"
     y="115.40591" /><rect
     style="fill:#000000;fill-opacity:1;stroke:#0a0a0a;stroke-width:0.379369;stroke-miterlimit:4;stroke-dasharray:none;stroke-dashoffset:0;stroke-opacity:1"
     id="rect107993"
     width="4.1645498"
     height="1.7527491"
     x="24.686209"
     y="117.93719" /><rect
     style="fill:#000000;fill-opacity:1;stroke:#0a0a0a;stroke-width:0.379369;stroke-miterlimit:4;stroke-dasharray:none;stroke-dashoffset:0;stroke-opacity:1"
     id="rect107993-9"
     width="4.1645498"
     height="1.7527491"
     x="30.676905"
     y="117.93719" /><rect
     style="fill:#000000;fill-opacity:1;stroke:#0a0a0a;stroke-width:0.379369;stroke-miterlimit:4;stroke-dasharray:none;stroke-dashoffset:0;stroke-opacity:1"
     id="rect107993-6"
     width="4.1645498"
     height="1.7527491"
     x="24.670223"
     y="120.78208" /><rect
     style="fill:#000000;fill-opacity:1;stroke:#0a0a0a;stroke-width:0.379369;stroke-miterlimit:4;stroke-dasharray:none;stroke-dashoffset:0;stroke-opacity:1"
     id="rect107993-9-3"
     width="4.1645498"
     height="1.7527491"
     x="30.660921"
     y="120.78208" /><rect
     style="fill:#000000;fill-opacity:1;stroke:#0a0a0a;stroke-width:0.379369;stroke-miterlimit:4;stroke-dasharray:none;stroke-dashoffset:0;stroke-opacity:1"
     id="rect107993-8"
     width="4.1645498"
     height="1.7527491"
     x="24.670223"
     y="120.78208" /><rect
     style="fill:#000000;fill-opacity:1;stroke:#0a0a0a;stroke-width:0.379369;stroke-miterlimit:4;stroke-dasharray:none;stroke-dashoffset:0;stroke-opacity:1"
     id="rect107993-9-5"
     width="4.1645498"
     height="1.7527491"
     x="30.660921"
     y="120.78208" /><rect
     style="fill:#000000;fill-opacity:1;stroke:#0a0a0a;stroke-width:0.379369;stroke-miterlimit:4;stroke-dasharray:none;stroke-dashoffset:0;stroke-opacity:1"
     id="rect107993-6-6"
     width="4.1645498"
     height="1.7527491"
     x="24.65424"
     y="123.62698" /><rect
     style="fill:#000000;fill-opacity:1;stroke:#0a0a0a;stroke-width:0.379369;stroke-miterlimit:4;stroke-dasharray:none;stroke-dashoffset:0;stroke-opacity:1"
     id="rect107993-9-3-1"
     width="4.1645498"
     height="1.7527491"
     x="30.644936"
     y="123.62698" /><rect
     style="fill:#000000;fill-opacity:1;stroke:#0a0a0a;stroke-width:0.379369;stroke-miterlimit:4;stroke-dasharray:none;stroke-dashoffset:0;stroke-opacity:1"
     id="rect107993-8-1"
     width="4.1645498"
     height="1.7527491"
     x="24.65424"
     y="123.62698" /><rect
     style="fill:#000000;fill-opacity:1;stroke:#0a0a0a;stroke-width:0.379369;stroke-miterlimit:4;stroke-dasharray:none;stroke-dashoffset:0;stroke-opacity:1"
     id="rect107993-9-5-5"
     width="4.1645498"
     height="1.7527491"
     x="30.644936"
     y="123.62698" /><rect
     style="fill:#000000;fill-opacity:1;stroke:#0a0a0a;stroke-width:0.379369;stroke-miterlimit:4;stroke-dasharray:none;stroke-dashoffset:0;stroke-opacity:1"
     id="rect107993-6-6-9"
     width="4.1645498"
     height="1.7527491"
     x="24.638256"
     y="126.47187" /><rect
     style="fill:#000000;fill-opacity:1;stroke:#0a0a0a;stroke-width:0.379369;stroke-miterlimit:4;stroke-dasharray:none;stroke-dashoffset:0;stroke-opacity:1"
     id="rect107993-9-3-1-8"
     width="4.1645498"
     height="1.7527491"
     x="30.628952"
     y="126.47187" /><rect
     style="fill:#000000;fill-opacity:1;stroke:#0a0a0a;stroke-width:0.379369;stroke-miterlimit:4;stroke-dasharray:none;stroke-dashoffset:0;stroke-opacity:1"
     id="rect107993-8-4"
     width="4.1645498"
     height="1.7527491"
     x="24.638256"
     y="126.47187" /><rect
     style="fill:#000000;fill-opacity:1;stroke:#0a0a0a;stroke-width:0.379369;stroke-miterlimit:4;stroke-dasharray:none;stroke-dashoffset:0;stroke-opacity:1"
     id="rect107993-9-5-8"
     width="4.1645498"
     height="1.7527491"
     x="30.628952"
     y="126.47187" /><rect
     style="fill:#000000;fill-opacity:1;stroke:#0a0a0a;stroke-width:0.379369;stroke-miterlimit:4;stroke-dasharray:none;stroke-dashoffset:0;stroke-opacity:1"
     id="rect107993-6-6-1"
     width="4.1645498"
     height="1.7527491"
     x="24.622272"
     y="129.31676" /><rect
     style="fill:#000000;fill-opacity:1;stroke:#0a0a0a;stroke-width:0.379369;stroke-miterlimit:4;stroke-dasharray:none;stroke-dashoffset:0;stroke-opacity:1"
     id="rect107993-9-3-1-0"
     width="4.1645498"
     height="1.7527491"
     x="30.612968"
     y="129.31676" /><rect
     style="fill:#000000;fill-opacity:1;stroke:#0a0a0a;stroke-width:0.379369;stroke-miterlimit:4;stroke-dasharray:none;stroke-dashoffset:0;stroke-opacity:1"
     id="rect107993-8-3"
     width="4.1645498"
     height="1.7527491"
     x="24.622272"
     y="129.31676" /><rect
     style="fill:#000000;fill-opacity:1;stroke:#0a0a0a;stroke-width:0.379369;stroke-miterlimit:4;stroke-dasharray:none;stroke-dashoffset:0;stroke-opacity:1"
     id="rect107993-9-5-0"
     width="4.1645498"
     height="1.7527491"
     x="30.612968"
     y="129.31676" /><rect
     style="fill:#000000;fill-opacity:1;stroke:#0a0a0a;stroke-width:0.379369;stroke-miterlimit:4;stroke-dasharray:none;stroke-dashoffset:0;stroke-opacity:1"
     id="rect107993-6-6-4"
     width="4.1645498"
     height="1.7527491"
     x="24.606289"
     y="132.16165" /><rect
     style="fill:#000000;fill-opacity:1;stroke:#0a0a0a;stroke-width:0.379369;stroke-miterlimit:4;stroke-dasharray:none;stroke-dashoffset:0;stroke-opacity:1"
     id="rect107993-9-3-1-4"
     width="4.1645498"
     height="1.7527491"
     x="30.596987"
     y="132.16165" /></g><path
   style="fill:none;stroke:#000000;stroke-width:4;stroke-linecap:butt;stroke-linejoin:miter;stroke-miterlimit:4;stroke-dasharray:none;stroke-opacity:1"
   d="m 42.19481,56.599036 -9.083682,9.35941"
   id="path38419"
   sodipodi:nodetypes="cc" /><path
   style="fill:none;stroke:#000000;stroke-width:4;stroke-linecap:butt;stroke-linejoin:miter;stroke-miterlimit:4;stroke-dasharray:none;stroke-opacity:1"
   d="M 43.741311,41.457746 37.875356,33.529717"
   id="path41697"
   sodipodi:nodetypes="cc" /><path
   style="fill:none;stroke:#000000;stroke-width:4;stroke-linecap:butt;stroke-linejoin:miter;stroke-miterlimit:4;stroke-dasharray:none;stroke-opacity:1"
   d="M 38.822304,49.445688 17.286383,48.273157"
   id="path41894"
   sodipodi:nodetypes="cc" /><circle
   style="fill:url(#linearGradient42090);fill-opacity:1;stroke:#000000;stroke-width:2.28293;stroke-linejoin:round;stroke-miterlimit:4;stroke-dasharray:none;stroke-opacity:1"
   id="path30757-7"
   cx="48.592258"
   cy="49.656422"
   r="9.7922316" /><path
   style="fill:none;stroke:#000000;stroke-width:4;stroke-linecap:butt;stroke-linejoin:miter;stroke-opacity:1;stroke-miterlimit:4;stroke-dasharray:none"
   d="M 62.790353,64.061374 55.76991,56.988248"
   id="path43022" /><path
   style="fill:none;stroke:#000000;stroke-width:4;stroke-linecap:butt;stroke-linejoin:miter;stroke-miterlimit:4;stroke-dasharray:none;stroke-opacity:1"
   d="M 55.714429,42.9058 68.379715,30.770088 v 0"
   id="path43137"
   sodipodi:nodetypes="ccc" /><circle
   style="fill:url(#linearGradient44585);fill-opacity:1;stroke:#000000;stroke-width:3.9;stroke-linejoin:round;stroke-miterlimit:4;stroke-dasharray:none;stroke-opacity:1"
   id="path30757"
   cx="28.017607"
   cy="20.075787"
   r="16.728405" /><circle
   style="fill:url(#linearGradient44593);fill-opacity:1;stroke:#000000;stroke-width:1.854;stroke-linejoin:round;stroke-miterlimit:4;stroke-dasharray:none;stroke-opacity:1"
   id="path30757-2"
   cx="9.367774"
   cy="47.708076"
   r="7.9535851" /><circle
   style="fill:url(#linearGradient44133);fill-opacity:1;stroke:#000000;stroke-width:5.61581;stroke-linejoin:round;stroke-miterlimit:4;stroke-dasharray:none;stroke-opacity:1"
   id="path30757-5"
   cx="81.147087"
   cy="80.181099"
   r="24.088078" /><circle
   style="fill:url(#linearGradient44265);fill-opacity:1;stroke:#000000;stroke-width:3.84006;stroke-linejoin:round;stroke-miterlimit:4;stroke-dasharray:none;stroke-opacity:1"
   id="path30757-5-2"
   cx="80.533531"
   cy="20.454456"
   r="16.471291" /><circle
   style="fill:url(#linearGradient44601);fill-opacity:1;stroke:#000000;stroke-width:4.6158;stroke-linejoin:round;stroke-miterlimit:4;stroke-dasharray:none;stroke-opacity:1"
   id="path30757-5-9"
   r="19.798697"
   cy="80.484741"
   cx="20.03788" /></svg>
