<?xml version="1.0" encoding="UTF-8" standalone="no"?>
<!-- Generator: Adobe Illustrator 16.0.0, SVG Export Plug-In . SVG Version: 6.00 Build 0)  -->

<svg
   version="1.1"
   id="Capa_1"
   x="0px"
   y="0px"
   width="106.583px"
   height="106.583px"
   viewBox="0 0 106.583 106.583"
   style="enable-background:new 0 0 106.583 106.583;"
   xml:space="preserve"
   sodipodi:docname="Logo4.svg"
   inkscape:version="1.1.2 (0a00cf5339, 2022-02-04)"
   xmlns:inkscape="http://www.inkscape.org/namespaces/inkscape"
   xmlns:sodipodi="http://sodipodi.sourceforge.net/DTD/sodipodi-0.dtd"
   xmlns:xlink="http://www.w3.org/1999/xlink"
   xmlns="http://www.w3.org/2000/svg"
   xmlns:svg="http://www.w3.org/2000/svg"><defs
   id="defs2099"><linearGradient
     inkscape:collect="always"
     id="linearGradient66985"><stop
       style="stop-color:#4e42f4;stop-opacity:1;"
       offset="0"
       id="stop66981" /><stop
       style="stop-color:#4e42f4;stop-opacity:0;"
       offset="1"
       id="stop66983" /></linearGradient><linearGradient
     inkscape:collect="always"
     id="linearGradient66977"><stop
       style="stop-color:#f65314;stop-opacity:1;"
       offset="0"
       id="stop66973" /><stop
       style="stop-color:#f65314;stop-opacity:0;"
       offset="1"
       id="stop66975" /></linearGradient><linearGradient
     inkscape:collect="always"
     id="linearGradient66785"><stop
       style="stop-color:#42f486;stop-opacity:1;"
       offset="0"
       id="stop66781" /><stop
       style="stop-color:#42f486;stop-opacity:0;"
       offset="1"
       id="stop66783" /></linearGradient><linearGradient
     inkscape:collect="always"
     id="linearGradient66777"><stop
       style="stop-color:#fbbc05;stop-opacity:1;"
       offset="0"
       id="stop66773" /><stop
       style="stop-color:#fbbc05;stop-opacity:0;"
       offset="1"
       id="stop66775" /></linearGradient><linearGradient
     inkscape:collect="always"
     id="linearGradient66747"><stop
       style="stop-color:#a442f4;stop-opacity:1;"
       offset="0"
       id="stop66743" /><stop
       style="stop-color:#a442f4;stop-opacity:0;"
       offset="1"
       id="stop66745" /></linearGradient><linearGradient
     inkscape:collect="always"
     id="linearGradient50719"><stop
       style="stop-color:#4285f4;stop-opacity:1;"
       offset="0"
       id="stop50715" /><stop
       style="stop-color:#4285f4;stop-opacity:0;"
       offset="1"
       id="stop50717" /></linearGradient><linearGradient
     inkscape:collect="always"
     xlink:href="#linearGradient50719"
     id="linearGradient50721"
     x1="44.374741"
     y1="54.838768"
     x2="56.864529"
     y2="42.188587"
     gradientUnits="userSpaceOnUse" /><linearGradient
     inkscape:collect="always"
     xlink:href="#linearGradient66747"
     id="linearGradient66749"
     x1="9.1287479"
     y1="23.404106"
     x2="52.91787"
     y2="7.8275814"
     gradientUnits="userSpaceOnUse" /><linearGradient
     inkscape:collect="always"
     xlink:href="#linearGradient66777"
     id="linearGradient66779"
     x1="53.856953"
     y1="26.328548"
     x2="106.15577"
     y2="14.121686"
     gradientUnits="userSpaceOnUse" /><linearGradient
     inkscape:collect="always"
     xlink:href="#linearGradient66785"
     id="linearGradient66787"
     x1="65.871346"
     y1="91.079025"
     x2="94.926872"
     y2="61.270096"
     gradientUnits="userSpaceOnUse" /><linearGradient
     inkscape:collect="always"
     xlink:href="#linearGradient66977"
     id="linearGradient66979"
     x1="3.4829092"
     y1="76.905022"
     x2="44.328244"
     y2="76.905022"
     gradientUnits="userSpaceOnUse" /><linearGradient
     inkscape:collect="always"
     xlink:href="#linearGradient66985"
     id="linearGradient66987"
     x1="5.8441265"
     y1="46.625061"
     x2="22.252366"
     y2="46.625061"
     gradientUnits="userSpaceOnUse" /></defs><sodipodi:namedview
   id="namedview2097"
   pagecolor="#ffffff"
   bordercolor="#666666"
   borderopacity="1.0"
   inkscape:pageshadow="2"
   inkscape:pageopacity="0.0"
   inkscape:pagecheckerboard="0"
   showgrid="false"
   inkscape:zoom="1.1399567"
   inkscape:cx="-5.7019712"
   inkscape:cy="44.29993"
   inkscape:window-width="1366"
   inkscape:window-height="632"
   inkscape:window-x="0"
   inkscape:window-y="27"
   inkscape:window-maximized="1"
   inkscape:current-layer="Capa_1" />
<g
   id="g2064"
   transform="matrix(0.17888085,0,0,0.17888085,21.862764,10.028413)">
	<g
   id="g2062">
		<polygon
   points="61.4,33.937 61.4,44.745 79.76,44.745 76.698,33.937 "
   id="polygon2028" />
		<polygon
   points="61.486,59.051 82.905,59.051 79.838,48.249 61.486,48.249 "
   id="polygon2030" />
		<path
   d="M 79.401,27.139 H 12.688 c -1.934,0 -3.511,1.273 -3.511,2.828 L 0,77.449 c 0,1.561 1.572,2.83 3.511,2.83 h 5.314 4.603 65.575 4.292 7.727 c 1.938,0 3.512,-1.27 3.512,-2.83 L 82.905,29.967 c 0,-1.555 -1.571,-2.828 -3.504,-2.828 z M 4.211,76.883 13.389,30.535 h 65.307 l 11.629,46.348 z"
   id="path2032" />
		<polygon
   points="33.048,33.937 16.529,33.937 13.466,44.745 33.048,44.745 "
   id="polygon2034" />
		<rect
   x="37.521"
   y="33.937"
   width="19.577999"
   height="10.804"
   id="rect2036" />
		<polygon
   points="10.487,59.051 33.131,59.051 33.131,48.249 13.55,48.249 "
   id="polygon2038" />
		<rect
   x="37.594002"
   y="48.249001"
   width="19.583"
   height="10.803"
   id="rect2040" />
		<polygon
   points="8.042,73.479 33.131,73.479 33.131,62.671 11.101,62.671 "
   id="polygon2042" />
		<rect
   x="37.594002"
   y="62.671001"
   width="19.583"
   height="10.808"
   id="rect2044" />
		<polygon
   points="61.486,62.671 61.486,73.479 85.964,73.479 82.905,62.671 "
   id="polygon2046" />
		<polygon
   points="50.819,82.793 43.078,82.793 43.078,98.173 33.983,98.173 33.983,103.409 60.148,103.409 60.148,98.173 50.819,98.173 "
   id="polygon2048" />
		<path
   d="m 81.557,24.858 c 1.93,0 3.504,1.268 3.504,2.829 l 3.271,13.352 c 3.196,-2.658 5.28,-6.617 5.28,-11.099 0,-8.001 -6.484,-14.487 -14.492,-14.487 -6.205,0 -11.461,3.925 -13.518,9.409 h 15.954 v -0.004 z"
   id="path2050" />
		<path
   d="m 106.368,29.61 -7.953,-2.137 c -0.1,-0.029 -0.213,-0.007 -0.295,0.06 -0.085,0.063 -0.13,0.161 -0.13,0.269 v 4.276 c 0,0.104 0.045,0.207 0.13,0.27 0.082,0.067 0.195,0.084 0.295,0.055 l 7.953,-2.137 c 0.287,-0.081 0.287,-0.576 0,-0.656 z"
   id="path2052" />
		<path
   d="m 76.981,11.77 h 4.281 c 0.106,0 0.205,-0.049 0.268,-0.133 0.062,-0.083 0.085,-0.19 0.062,-0.291 L 79.449,3.394 C 79.374,3.1 78.878,3.1 78.799,3.394 l -2.139,7.952 c -0.03,0.101 -0.007,0.21 0.059,0.291 0.061,0.084 0.163,0.133 0.262,0.133 z"
   id="path2054" />
		<path
   d="m 93.48,18.603 c 0.075,0.074 0.178,0.11 0.284,0.096 0.099,-0.01 0.194,-0.073 0.249,-0.166 l 4.106,-7.134 c 0.151,-0.264 -0.198,-0.614 -0.465,-0.46 l -7.129,4.111 c -0.089,0.048 -0.153,0.144 -0.167,0.245 -0.014,0.104 0.023,0.21 0.096,0.284 z"
   id="path2056" />
		<path
   d="M 92.371,41.343 C 92.32,41.256 92.227,41.193 92.128,41.179 92.023,41.163 91.92,41.2 91.845,41.273 l -2.775,2.775 0.249,1.033 6.701,3.858 c 0.264,0.15 0.616,-0.2 0.465,-0.462 z"
   id="path2058" />
		<path
   d="m 62.848,18.708 c 0.096,0.007 0.201,-0.032 0.273,-0.106 l 3.025,-3.023 c 0.071,-0.074 0.113,-0.176 0.099,-0.277 0,-0.097 -0.062,-0.181 -0.144,-0.228 L 59.504,11.5 c -0.239,-0.13 -0.596,0.217 -0.462,0.462 l 3.576,6.596 c 0.052,0.091 0.131,0.14 0.23,0.15 z"
   id="path2060" />
	</g>
</g>
<g
   id="g2066">
</g>
<g
   id="g2068">
</g>
<g
   id="g2070">
</g>
<g
   id="g2072">
</g>
<g
   id="g2074">
</g>
<g
   id="g2076">
</g>
<g
   id="g2078">
</g>
<g
   id="g2080">
</g>
<g
   id="g2082">
</g>
<g
   id="g2084">
</g>
<g
   id="g2086">
</g>
<g
   id="g2088">
</g>
<g
   id="g2090">
</g>
<g
   id="g2092">
</g>
<g
   id="g2094">
</g>
<ellipse
   style="fill:none;stroke:#231f20;stroke-width:0.862202;stroke-dasharray:none;stroke-opacity:1"
   id="path29"
   cx="12.451061"
   cy="47.002159"
   rx="2.7759991"
   ry="2.6636789" /><ellipse
   style="fill:none;stroke:#b3b3b3;stroke-width:0.862202;stroke-dasharray:none;stroke-opacity:1"
   id="path29-3"
   cx="15.247499"
   cy="47.006859"
   rx="2.7759991"
   ry="2.6636789" /><path
   style="fill:none;stroke:#231f20;stroke-width:1.24957;stroke-dasharray:none;stroke-opacity:1"
   d="m 16.486425,47.127669 3.438305,-0.03425"
   id="path30" /><g
   id="g36500"
   transform="matrix(0.6471954,0,0,0.6471954,114.67593,-9.3422291)"><rect
     style="fill:#000000;fill-opacity:1;stroke:none;stroke-width:1.50542;stroke-dasharray:none;stroke-opacity:1;paint-order:fill markers stroke"
     id="rect13-6"
     width="4.1426373"
     height="15.888791"
     x="-45.942947"
     y="135.22481"
     ry="0.10407598" /><path
     style="fill:#000000;fill-opacity:1;stroke:none;stroke-width:1.43543;stroke-dasharray:none;stroke-opacity:1"
     d="m -46.480996,133.98199 -2.045349,13.13718 3.056931,0.7492 3.255663,-12.771"
     id="path13-1"
     sodipodi:nodetypes="cccc" /><path
     style="fill:#000000;fill-opacity:1;stroke:none;stroke-width:1.43543;stroke-dasharray:none;stroke-opacity:1"
     d="m -43.690641,129.86404 -10.354455,-8.33992 -2.17729,2.27278 9.432186,9.20498"
     id="path13-9-2"
     sodipodi:nodetypes="cccc" /><path
     style="fill:#000000;fill-opacity:1;stroke:none;stroke-width:1.43543;stroke-dasharray:none;stroke-opacity:1;paint-order:markers stroke fill"
     d="m -41.137754,134.34442 12.399812,-4.79726 -0.879649,-3.02199 -12.687842,3.56603"
     id="path13-9-7-9"
     sodipodi:nodetypes="cccc" /><circle
     style="fill:#000000;fill-opacity:1;stroke:#ffffff;stroke-width:1.36774;stroke-dasharray:none;stroke-opacity:1"
     id="path12-3"
     cx="-43.973213"
     cy="132.95529"
     r="2.5273814" /><rect
     style="fill:#000000;fill-opacity:1;stroke:#555555;stroke-width:0.594908;stroke-dasharray:none;stroke-opacity:1;paint-order:fill markers stroke"
     id="rect14-3-1"
     width="5.3909235"
     height="0.38967407"
     x="-46.472324"
     y="150.8054"
     ry="0.19483703" /><rect
     style="fill:#7e7e7e;fill-opacity:1;stroke:#7e7e7e;stroke-width:1.32522;stroke-dasharray:none;stroke-opacity:1;paint-order:fill markers stroke"
     id="rect14-9"
     width="6.1084294"
     height="1.7065197"
     x="-46.771687"
     y="151.57382"
     ry="0" /><path
     style="fill:#000000;fill-opacity:1;stroke:#b6b6b6;stroke-width:0.143543;stroke-dasharray:none;stroke-opacity:1;paint-order:fill markers stroke"
     d="m -46.738195,150.8926 h 5.909378"
     id="path15-4" /><rect
     style="fill:#000000;fill-opacity:1;stroke:none;stroke-width:2.00633;stroke-dasharray:none;stroke-opacity:1;paint-order:fill markers stroke"
     id="rect13"
     width="5.5210886"
     height="21.175741"
     x="-63.529137"
     y="129.38914"
     ry="0.13870698" /><path
     style="fill:#000000;fill-opacity:1;stroke:none;stroke-width:1.91307;stroke-dasharray:none;stroke-opacity:1"
     d="m -64.246205,127.73278 -2.725934,17.50855 4.074116,0.99849 4.338973,-17.02052"
     id="path13"
     sodipodi:nodetypes="cccc" /><path
     style="fill:#000000;fill-opacity:1;stroke:none;stroke-width:1.91307;stroke-dasharray:none;stroke-opacity:1"
     d="m -60.527365,122.24459 -13.799877,-11.115 -2.901773,3.02904 12.570713,12.26792"
     id="path13-9"
     sodipodi:nodetypes="cccc" /><path
     style="fill:#000000;fill-opacity:1;stroke:none;stroke-width:1.91307;stroke-dasharray:none;stroke-opacity:1;paint-order:markers stroke fill"
     d="m -57.125012,128.21581 16.525809,-6.39354 -1.815431,-4.02753 -16.266598,4.7526"
     id="path13-9-7"
     sodipodi:nodetypes="cccc" /><circle
     style="fill:#000000;fill-opacity:1;stroke:#ffffff;stroke-width:1.82286;stroke-dasharray:none;stroke-opacity:1"
     id="path12"
     cx="-60.903969"
     cy="126.36447"
     r="3.3683608" /><rect
     style="fill:#000000;fill-opacity:1;stroke:#555555;stroke-width:0.792861;stroke-dasharray:none;stroke-opacity:1;paint-order:fill markers stroke"
     id="rect14-3"
     width="7.1847396"
     height="0.51933706"
     x="-64.234642"
     y="150.15414"
     ry="0.25966853" /><rect
     style="fill:#7e7e7e;fill-opacity:1;stroke:#7e7e7e;stroke-width:1.76619;stroke-dasharray:none;stroke-opacity:1;paint-order:fill markers stroke"
     id="rect14"
     width="8.1409922"
     height="2.2743592"
     x="-64.633629"
     y="151.17825"
     ry="0" /><path
     style="fill:#000000;fill-opacity:1;stroke:#b6b6b6;stroke-width:0.191307;stroke-dasharray:none;stroke-opacity:1;paint-order:fill markers stroke"
     d="m -64.588978,150.27035 h 7.875693"
     id="path15" /></g><g
   id="g5"
   transform="matrix(0.07765986,0,0,0.07765986,70.834115,12.028982)"><path
     d="M 225.893,59.673 H 7.5 c -4.143,0 -7.5,3.358 -7.5,7.5 V 196.98 c 0,4.142 3.357,7.5 7.5,7.5 h 218.393 c 4.143,0 7.5,-3.358 7.5,-7.5 V 67.173 c 0,-4.142 -3.358,-7.5 -7.5,-7.5 z m -7.5,129.806 H 15 V 74.673 h 203.393 z"
     id="path1" /><path
     d="m 35.184,139.575 h 43.064 c 4.143,0 7.5,-3.358 7.5,-7.5 0,-4.142 -3.357,-7.5 -7.5,-7.5 H 35.184 c -4.143,0 -7.5,3.358 -7.5,7.5 0,4.142 3.357,7.5 7.5,7.5 z"
     id="path2" /><path
     d="m 155.145,139.575 h 14.033 v 14.033 c 0,4.142 3.357,7.5 7.5,7.5 4.143,0 7.5,-3.358 7.5,-7.5 v -14.033 h 14.031 c 4.143,0 7.5,-3.358 7.5,-7.5 0,-4.142 -3.357,-7.5 -7.5,-7.5 h -14.031 v -14.031 c 0,-4.142 -3.357,-7.5 -7.5,-7.5 -4.143,0 -7.5,3.358 -7.5,7.5 v 14.031 h -14.033 c -4.143,0 -7.5,3.358 -7.5,7.5 0,4.142 3.357,7.5 7.5,7.5 z"
     id="path3" /><path
     d="m 35.184,43.913 h 43.064 c 4.143,0 7.5,-3.358 7.5,-7.5 0,-4.142 -3.357,-7.5 -7.5,-7.5 H 35.184 c -4.143,0 -7.5,3.358 -7.5,7.5 0,4.142 3.357,7.5 7.5,7.5 z"
     id="path4" /><path
     d="m 155.145,43.913 h 43.064 c 4.143,0 7.5,-3.358 7.5,-7.5 0,-4.142 -3.357,-7.5 -7.5,-7.5 h -43.064 c -4.143,0 -7.5,3.358 -7.5,7.5 0,4.142 3.357,7.5 7.5,7.5 z"
     id="path5" /></g><g
   id="g36548"
   transform="matrix(0.9238268,0,0,0.9238268,-6.9372807,-40.012055)"><path
     style="fill:#ffffff;fill-opacity:1;stroke:#0a0a0a;stroke-width:1.05539;stroke-linecap:butt;stroke-linejoin:round;stroke-miterlimit:4;stroke-dasharray:none;stroke-opacity:1"
     d="m 37.141797,121.82262 -1.021063,-1.04053 h 9.05437 l 1.738937,1.02311 h -9.799313"
     id="path96311-5"
     sodipodi:nodetypes="ccccc" /><path
     style="fill:#ffffff;fill-opacity:1;stroke:#0a0a0a;stroke-width:1.176;stroke-linecap:butt;stroke-linejoin:round;stroke-miterlimit:4;stroke-dasharray:none;stroke-opacity:1"
     d="m 36.120734,120.78209 1.051341,1.04999 -0.01104,16.07056 -1.087747,-1.24753 z"
     id="path102949-3"
     sodipodi:nodetypes="ccccc" /><rect
     style="fill:#ffffff;fill-opacity:1;stroke:#0a0a0a;stroke-width:1.05539;stroke-linejoin:round;stroke-miterlimit:4;stroke-dasharray:none;stroke-dashoffset:0;stroke-opacity:1"
     id="rect96190-5"
     width="9.8725529"
     height="16.081602"
     x="37.16103"
     y="121.82102" /><rect
     style="fill:#000000;fill-opacity:1;stroke:#0a0a0a;stroke-width:0.272693;stroke-miterlimit:4;stroke-dasharray:none;stroke-dashoffset:0;stroke-opacity:1"
     id="rect107993-62"
     width="2.993504"
     height="1.2598867"
     x="38.670616"
     y="123.64053" /><rect
     style="fill:#000000;fill-opacity:1;stroke:#0a0a0a;stroke-width:0.272693;stroke-miterlimit:4;stroke-dasharray:none;stroke-dashoffset:0;stroke-opacity:1"
     id="rect107993-9-9"
     width="2.993504"
     height="1.2598867"
     x="42.976768"
     y="123.64053" /><rect
     style="fill:#000000;fill-opacity:1;stroke:#0a0a0a;stroke-width:0.272693;stroke-miterlimit:4;stroke-dasharray:none;stroke-dashoffset:0;stroke-opacity:1"
     id="rect107993-6-1"
     width="2.993504"
     height="1.2598867"
     x="38.659126"
     y="125.68545" /><rect
     style="fill:#000000;fill-opacity:1;stroke:#0a0a0a;stroke-width:0.272693;stroke-miterlimit:4;stroke-dasharray:none;stroke-dashoffset:0;stroke-opacity:1"
     id="rect107993-9-3-2"
     width="2.993504"
     height="1.2598867"
     x="42.965275"
     y="125.68545" /><rect
     style="fill:#000000;fill-opacity:1;stroke:#0a0a0a;stroke-width:0.272693;stroke-miterlimit:4;stroke-dasharray:none;stroke-dashoffset:0;stroke-opacity:1"
     id="rect107993-8-7"
     width="2.993504"
     height="1.2598867"
     x="38.659126"
     y="125.68545" /><rect
     style="fill:#000000;fill-opacity:1;stroke:#0a0a0a;stroke-width:0.272693;stroke-miterlimit:4;stroke-dasharray:none;stroke-dashoffset:0;stroke-opacity:1"
     id="rect107993-9-5-09"
     width="2.993504"
     height="1.2598867"
     x="42.965275"
     y="125.68545" /><rect
     style="fill:#000000;fill-opacity:1;stroke:#0a0a0a;stroke-width:0.272693;stroke-miterlimit:4;stroke-dasharray:none;stroke-dashoffset:0;stroke-opacity:1"
     id="rect107993-6-6-3"
     width="2.993504"
     height="1.2598867"
     x="38.647636"
     y="127.73038" /><rect
     style="fill:#000000;fill-opacity:1;stroke:#0a0a0a;stroke-width:0.272693;stroke-miterlimit:4;stroke-dasharray:none;stroke-dashoffset:0;stroke-opacity:1"
     id="rect107993-9-3-1-6"
     width="2.993504"
     height="1.2598867"
     x="42.953789"
     y="127.73038" /><rect
     style="fill:#000000;fill-opacity:1;stroke:#0a0a0a;stroke-width:0.272693;stroke-miterlimit:4;stroke-dasharray:none;stroke-dashoffset:0;stroke-opacity:1"
     id="rect107993-8-1-0"
     width="2.993504"
     height="1.2598867"
     x="38.647636"
     y="127.73038" /><rect
     style="fill:#000000;fill-opacity:1;stroke:#0a0a0a;stroke-width:0.272693;stroke-miterlimit:4;stroke-dasharray:none;stroke-dashoffset:0;stroke-opacity:1"
     id="rect107993-9-5-5-6"
     width="2.993504"
     height="1.2598867"
     x="42.953789"
     y="127.73038" /><rect
     style="fill:#000000;fill-opacity:1;stroke:#0a0a0a;stroke-width:0.272693;stroke-miterlimit:4;stroke-dasharray:none;stroke-dashoffset:0;stroke-opacity:1"
     id="rect107993-6-6-9-2"
     width="2.993504"
     height="1.2598867"
     x="38.636147"
     y="129.7753" /><rect
     style="fill:#000000;fill-opacity:1;stroke:#0a0a0a;stroke-width:0.272693;stroke-miterlimit:4;stroke-dasharray:none;stroke-dashoffset:0;stroke-opacity:1"
     id="rect107993-9-3-1-8-6"
     width="2.993504"
     height="1.2598867"
     x="42.942299"
     y="129.7753" /><rect
     style="fill:#000000;fill-opacity:1;stroke:#0a0a0a;stroke-width:0.272693;stroke-miterlimit:4;stroke-dasharray:none;stroke-dashoffset:0;stroke-opacity:1"
     id="rect107993-8-4-1"
     width="2.993504"
     height="1.2598867"
     x="38.636147"
     y="129.7753" /><rect
     style="fill:#000000;fill-opacity:1;stroke:#0a0a0a;stroke-width:0.272693;stroke-miterlimit:4;stroke-dasharray:none;stroke-dashoffset:0;stroke-opacity:1"
     id="rect107993-9-5-8-8"
     width="2.993504"
     height="1.2598867"
     x="42.942299"
     y="129.7753" /><rect
     style="fill:#000000;fill-opacity:1;stroke:#0a0a0a;stroke-width:0.272693;stroke-miterlimit:4;stroke-dasharray:none;stroke-dashoffset:0;stroke-opacity:1"
     id="rect107993-6-6-1-7"
     width="2.993504"
     height="1.2598867"
     x="38.624657"
     y="131.82022" /><rect
     style="fill:#000000;fill-opacity:1;stroke:#0a0a0a;stroke-width:0.272693;stroke-miterlimit:4;stroke-dasharray:none;stroke-dashoffset:0;stroke-opacity:1"
     id="rect107993-9-3-1-0-9"
     width="2.993504"
     height="1.2598867"
     x="42.930809"
     y="131.82022" /><rect
     style="fill:#000000;fill-opacity:1;stroke:#0a0a0a;stroke-width:0.272693;stroke-miterlimit:4;stroke-dasharray:none;stroke-dashoffset:0;stroke-opacity:1"
     id="rect107993-8-3-2"
     width="2.993504"
     height="1.2598867"
     x="38.624657"
     y="131.82022" /><rect
     style="fill:#000000;fill-opacity:1;stroke:#0a0a0a;stroke-width:0.272693;stroke-miterlimit:4;stroke-dasharray:none;stroke-dashoffset:0;stroke-opacity:1"
     id="rect107993-9-5-0-0"
     width="2.993504"
     height="1.2598867"
     x="42.930809"
     y="131.82022" /><rect
     style="fill:#000000;fill-opacity:1;stroke:#0a0a0a;stroke-width:0.272693;stroke-miterlimit:4;stroke-dasharray:none;stroke-dashoffset:0;stroke-opacity:1"
     id="rect107993-6-6-4-2"
     width="2.993504"
     height="1.2598867"
     x="38.613171"
     y="133.86516" /><rect
     style="fill:#000000;fill-opacity:1;stroke:#0a0a0a;stroke-width:0.272693;stroke-miterlimit:4;stroke-dasharray:none;stroke-dashoffset:0;stroke-opacity:1"
     id="rect107993-9-3-1-4-3"
     width="2.993504"
     height="1.2598867"
     x="42.919319"
     y="133.86516" /><path
     style="fill:#ffffff;fill-opacity:1;stroke:#0a0a0a;stroke-width:1.46825;stroke-linecap:butt;stroke-linejoin:round;stroke-miterlimit:4;stroke-dasharray:none;stroke-opacity:1"
     d="m 22.559319,115.40812 -1.420497,-1.44758 h 12.596401 l 2.4192,1.42336 H 22.521662"
     id="path96311"
     sodipodi:nodetypes="ccccc" /><path
     style="fill:#ffffff;fill-opacity:1;stroke:#0a0a0a;stroke-width:1.63605;stroke-linecap:butt;stroke-linejoin:round;stroke-miterlimit:4;stroke-dasharray:none;stroke-opacity:1"
     d="m 21.138822,113.96054 1.46262,1.46075 -0.01536,22.35729 -1.513269,-1.73556 z"
     id="path102949"
     sodipodi:nodetypes="ccccc" /><rect
     style="fill:#ffffff;fill-opacity:1;stroke:#0a0a0a;stroke-width:1.46825;stroke-linejoin:round;stroke-miterlimit:4;stroke-dasharray:none;stroke-dashoffset:0;stroke-opacity:1"
     id="rect96190"
     width="13.734653"
     height="22.372658"
     x="22.586081"
     y="115.40591" /><rect
     style="fill:#000000;fill-opacity:1;stroke:#0a0a0a;stroke-width:0.379369;stroke-miterlimit:4;stroke-dasharray:none;stroke-dashoffset:0;stroke-opacity:1"
     id="rect107993"
     width="4.1645498"
     height="1.7527491"
     x="24.686209"
     y="117.93719" /><rect
     style="fill:#000000;fill-opacity:1;stroke:#0a0a0a;stroke-width:0.379369;stroke-miterlimit:4;stroke-dasharray:none;stroke-dashoffset:0;stroke-opacity:1"
     id="rect107993-9"
     width="4.1645498"
     height="1.7527491"
     x="30.676905"
     y="117.93719" /><rect
     style="fill:#000000;fill-opacity:1;stroke:#0a0a0a;stroke-width:0.379369;stroke-miterlimit:4;stroke-dasharray:none;stroke-dashoffset:0;stroke-opacity:1"
     id="rect107993-6"
     width="4.1645498"
     height="1.7527491"
     x="24.670223"
     y="120.78208" /><rect
     style="fill:#000000;fill-opacity:1;stroke:#0a0a0a;stroke-width:0.379369;stroke-miterlimit:4;stroke-dasharray:none;stroke-dashoffset:0;stroke-opacity:1"
     id="rect107993-9-3"
     width="4.1645498"
     height="1.7527491"
     x="30.660921"
     y="120.78208" /><rect
     style="fill:#000000;fill-opacity:1;stroke:#0a0a0a;stroke-width:0.379369;stroke-miterlimit:4;stroke-dasharray:none;stroke-dashoffset:0;stroke-opacity:1"
     id="rect107993-8"
     width="4.1645498"
     height="1.7527491"
     x="24.670223"
     y="120.78208" /><rect
     style="fill:#000000;fill-opacity:1;stroke:#0a0a0a;stroke-width:0.379369;stroke-miterlimit:4;stroke-dasharray:none;stroke-dashoffset:0;stroke-opacity:1"
     id="rect107993-9-5"
     width="4.1645498"
     height="1.7527491"
     x="30.660921"
     y="120.78208" /><rect
     style="fill:#000000;fill-opacity:1;stroke:#0a0a0a;stroke-width:0.379369;stroke-miterlimit:4;stroke-dasharray:none;stroke-dashoffset:0;stroke-opacity:1"
     id="rect107993-6-6"
     width="4.1645498"
     height="1.7527491"
     x="24.65424"
     y="123.62698" /><rect
     style="fill:#000000;fill-opacity:1;stroke:#0a0a0a;stroke-width:0.379369;stroke-miterlimit:4;stroke-dasharray:none;stroke-dashoffset:0;stroke-opacity:1"
     id="rect107993-9-3-1"
     width="4.1645498"
     height="1.7527491"
     x="30.644936"
     y="123.62698" /><rect
     style="fill:#000000;fill-opacity:1;stroke:#0a0a0a;stroke-width:0.379369;stroke-miterlimit:4;stroke-dasharray:none;stroke-dashoffset:0;stroke-opacity:1"
     id="rect107993-8-1"
     width="4.1645498"
     height="1.7527491"
     x="24.65424"
     y="123.62698" /><rect
     style="fill:#000000;fill-opacity:1;stroke:#0a0a0a;stroke-width:0.379369;stroke-miterlimit:4;stroke-dasharray:none;stroke-dashoffset:0;stroke-opacity:1"
     id="rect107993-9-5-5"
     width="4.1645498"
     height="1.7527491"
     x="30.644936"
     y="123.62698" /><rect
     style="fill:#000000;fill-opacity:1;stroke:#0a0a0a;stroke-width:0.379369;stroke-miterlimit:4;stroke-dasharray:none;stroke-dashoffset:0;stroke-opacity:1"
     id="rect107993-6-6-9"
     width="4.1645498"
     height="1.7527491"
     x="24.638256"
     y="126.47187" /><rect
     style="fill:#000000;fill-opacity:1;stroke:#0a0a0a;stroke-width:0.379369;stroke-miterlimit:4;stroke-dasharray:none;stroke-dashoffset:0;stroke-opacity:1"
     id="rect107993-9-3-1-8"
     width="4.1645498"
     height="1.7527491"
     x="30.628952"
     y="126.47187" /><rect
     style="fill:#000000;fill-opacity:1;stroke:#0a0a0a;stroke-width:0.379369;stroke-miterlimit:4;stroke-dasharray:none;stroke-dashoffset:0;stroke-opacity:1"
     id="rect107993-8-4"
     width="4.1645498"
     height="1.7527491"
     x="24.638256"
     y="126.47187" /><rect
     style="fill:#000000;fill-opacity:1;stroke:#0a0a0a;stroke-width:0.379369;stroke-miterlimit:4;stroke-dasharray:none;stroke-dashoffset:0;stroke-opacity:1"
     id="rect107993-9-5-8"
     width="4.1645498"
     height="1.7527491"
     x="30.628952"
     y="126.47187" /><rect
     style="fill:#000000;fill-opacity:1;stroke:#0a0a0a;stroke-width:0.379369;stroke-miterlimit:4;stroke-dasharray:none;stroke-dashoffset:0;stroke-opacity:1"
     id="rect107993-6-6-1"
     width="4.1645498"
     height="1.7527491"
     x="24.622272"
     y="129.31676" /><rect
     style="fill:#000000;fill-opacity:1;stroke:#0a0a0a;stroke-width:0.379369;stroke-miterlimit:4;stroke-dasharray:none;stroke-dashoffset:0;stroke-opacity:1"
     id="rect107993-9-3-1-0"
     width="4.1645498"
     height="1.7527491"
     x="30.612968"
     y="129.31676" /><rect
     style="fill:#000000;fill-opacity:1;stroke:#0a0a0a;stroke-width:0.379369;stroke-miterlimit:4;stroke-dasharray:none;stroke-dashoffset:0;stroke-opacity:1"
     id="rect107993-8-3"
     width="4.1645498"
     height="1.7527491"
     x="24.622272"
     y="129.31676" /><rect
     style="fill:#000000;fill-opacity:1;stroke:#0a0a0a;stroke-width:0.379369;stroke-miterlimit:4;stroke-dasharray:none;stroke-dashoffset:0;stroke-opacity:1"
     id="rect107993-9-5-0"
     width="4.1645498"
     height="1.7527491"
     x="30.612968"
     y="129.31676" /><rect
     style="fill:#000000;fill-opacity:1;stroke:#0a0a0a;stroke-width:0.379369;stroke-miterlimit:4;stroke-dasharray:none;stroke-dashoffset:0;stroke-opacity:1"
     id="rect107993-6-6-4"
     width="4.1645498"
     height="1.7527491"
     x="24.606289"
     y="132.16165" /><rect
     style="fill:#000000;fill-opacity:1;stroke:#0a0a0a;stroke-width:0.379369;stroke-miterlimit:4;stroke-dasharray:none;stroke-dashoffset:0;stroke-opacity:1"
     id="rect107993-9-3-1-4"
     width="4.1645498"
     height="1.7527491"
     x="30.596987"
     y="132.16165" /></g><path
   style="fill:none;stroke:#303030;stroke-width:3.69531;stroke-linecap:butt;stroke-linejoin:miter;stroke-miterlimit:4;stroke-dasharray:none;stroke-opacity:1"
   d="m 44.374742,54.838767 -8.391749,8.646474"
   id="path38419"
   sodipodi:nodetypes="cc" /><path
   style="fill:none;stroke:#303030;stroke-width:3.69531;stroke-linecap:butt;stroke-linejoin:miter;stroke-miterlimit:4;stroke-dasharray:none;stroke-opacity:1"
   d="M 45.803441,40.850838 40.384314,33.526712"
   id="path41697"
   sodipodi:nodetypes="cc" /><path
   style="fill:none;stroke:#303030;stroke-width:3.69531;stroke-linecap:butt;stroke-linejoin:miter;stroke-miterlimit:4;stroke-dasharray:none;stroke-opacity:1"
   d="M 41.25913,48.230313 21.363669,47.147097"
   id="path41894"
   sodipodi:nodetypes="cc" /><ellipse
   style="fill:url(#linearGradient50721);fill-opacity:1;stroke:#303030;stroke-width:2.10903;stroke-linejoin:round;stroke-miterlimit:4;stroke-dasharray:none;stroke-opacity:1"
   id="path30757-7"
   cx="50.284878"
   cy="48.424995"
   rx="9.0459995"
   ry="9.0463257" /><path
   style="fill:none;stroke:#303030;stroke-width:3.69531;stroke-linecap:butt;stroke-linejoin:miter;stroke-miterlimit:4;stroke-dasharray:none;stroke-opacity:1"
   d="M 63.401456,61.732675 56.915783,55.198332"
   id="path43022" /><path
   style="fill:none;stroke:#303030;stroke-width:3.69531;stroke-linecap:butt;stroke-linejoin:miter;stroke-miterlimit:4;stroke-dasharray:none;stroke-opacity:1"
   d="M 56.864528,42.188589 68.565059,30.977293 v 0"
   id="path43137"
   sodipodi:nodetypes="ccc" /><circle
   style="fill:url(#linearGradient66749);fill-opacity:1;stroke:#303030;stroke-width:3.60292;stroke-linejoin:round;stroke-miterlimit:4;stroke-dasharray:none;stroke-opacity:1"
   id="path30757"
   r="15.454149"
   cy="21.09761"
   cx="31.277462" /><circle
   style="fill:url(#linearGradient66987);fill-opacity:1;stroke:#303030;stroke-width:1.71277;stroke-linejoin:round;stroke-miterlimit:4;stroke-dasharray:none;stroke-opacity:1"
   id="path30757-2"
   cx="14.048246"
   cy="46.625061"
   r="7.3477349" /><circle
   style="fill:url(#linearGradient66787);fill-opacity:1;stroke:#303030;stroke-width:5.18804;stroke-linejoin:round;stroke-miterlimit:4;stroke-dasharray:none;stroke-opacity:1"
   id="path30757-5"
   cx="80.359901"
   cy="76.624512"
   r="22.253212" /><circle
   style="fill:url(#linearGradient66779);fill-opacity:1;stroke:#303030;stroke-width:3.54755;stroke-linejoin:round;stroke-miterlimit:4;stroke-dasharray:none;stroke-opacity:1"
   id="path30757-5-2"
   r="15.216619"
   cy="21.447435"
   cx="79.793083" /><circle
   style="fill:url(#linearGradient66979);fill-opacity:1;stroke:#303030;stroke-width:4.2642;stroke-linejoin:round;stroke-miterlimit:4;stroke-dasharray:none;stroke-opacity:1"
   id="path30757-5-9"
   r="18.290567"
   cy="76.905022"
   cx="23.905577" /></svg>
