<?xml version='1.0' encoding='utf-8'?>
<!DOCTYPE svg PUBLIC '-//W3C//DTD SVG 1.1//EN' 'http://www.w3.org/Graphics/SVG/1.1/DTD/svg11.dtd'>
<svg version="1.1" xmlns="http://www.w3.org/2000/svg" viewBox="0 0 512 512" xmlns:xlink="http://www.w3.org/1999/xlink" enable-background="new 0 0 512 512">
  <g>
    <g>
      <g>
        <path d="m500,400l-38.7-214.7c-1.7-9.7-10.2-16.8-20.1-16.8h-241.5c-9.9,0-18.3,7.1-20.1,16.8l-39.2,217.5c-2.4,18 13.1,24.5 20.1,24h139.5v33.4h-40.7c-11.3,0-20.4,9.1-20.4,20.4 0,11.3 9.1,20.4 20.4,20.4h125.2c11.3,0 20.4-9.1 20.4-20.4 0-11.3-9.1-20.4-20.4-20.4h-43.7v-33.4h139.6c0.1,0 0.2,0 0.2,0 12.2,0.1 23.9-11.2 19.4-26.8zm-200-14h-115.1l14.5-80.6h100.6v80.6zm0-121.5h-93.3l10-55.2h83.3v55.2zm40.9-55.2h83.3l10,55.2h-93.2v-55.2zm-.1,176.7v-80.6h100.6l14.5,80.6h-115.1z"/>
        <path d="m131.8,127.9c9-7.9 20.7-11.8 32.6-11 12,0.8 22.9,6.3 30.8,15.3 7.4,8.5 20.3,9.4 28.8,2 8.5-7.4 9.4-20.3 2-28.8-15.1-17.3-35.9-27.7-58.8-29.2-22.8-1.6-45,5.9-62.2,20.9-35.6,31.1-39.4,85.4-8.3,121.1 4,4.6 9.7,7 15.4,7 4.8,0 9.5-1.7 13.4-5 8.5-7.4 9.4-20.3 2-28.8-16.4-18.7-14.4-47.2 4.3-63.5z"/>
        <path d="m64.7,82c4,4.6 9.7,7 15.4,7 4.8,0 9.5-1.7 13.4-5 8.5-7.4 9.4-20.3 2-28.8l-4.8-5.6c-7.4-8.5-20.3-9.4-28.8-2-8.5,7.4-9.4,20.3-2,28.8l4.8,5.6z"/>
        <path d="m251.3,100.7c4.8,0 9.5-1.7 13.4-5l5.6-4.9c8.5-7.4 9.4-20.3 2-28.8-7.4-8.5-20.3-9.4-28.8-2l-5.6,4.9c-8.5,7.4-9.4,20.3-2,28.8 4.1,4.7 9.7,7 15.4,7z"/>
        <path d="m55,224.6l-5.6,4.9c-8.5,7.4-9.4,20.3-2,28.8 4,4.6 9.7,7 15.4,7 4.8,0 9.5-1.7 13.4-5l5.6-4.9c8.5-7.4 9.4-20.3 2-28.8-7.4-8.6-20.3-9.5-28.8-2z"/>
        <path d="m166.8,59.3c0.5,0 0.9,0 1.4,0 10.6,0 19.6-8.3 20.3-19l.5-7.3c0.8-11.2-7.7-21-19-21.7-11.3-0.7-21,7.7-21.7,19l-.5,7.4c-0.8,11.1 7.7,20.9 19,21.6z"/>
        <path d="m59.2,153.2c0.8-11.2-7.7-21-19-21.7l-7.4-.5c-11.4-0.8-21,7.7-21.8,19-0.8,11.2 7.7,21 19,21.7l7.4,.5c0.5,0 0.9,0.1 1.4,0.1 10.7-0.1 19.6-8.3 20.4-19.1z"/>
      </g>
    </g>
  </g>
</svg>
