<?xml version="1.0" encoding="iso-8859-1"?>
<!-- Generator: Adobe Illustrator 16.0.0, SVG Export Plug-In . SVG Version: 6.00 Build 0)  -->
<!DOCTYPE svg PUBLIC "-//W3C//DTD SVG 1.1//EN" "http://www.w3.org/Graphics/SVG/1.1/DTD/svg11.dtd">
<svg version="1.1" id="Capa_1" xmlns="http://www.w3.org/2000/svg" xmlns:xlink="http://www.w3.org/1999/xlink" x="0px" y="0px"
	 width="497.029px" height="497.029px" viewBox="0 0 497.029 497.029" style="enable-background:new 0 0 497.029 497.029;"
	 xml:space="preserve">
<g>
	<path d="M418.394,54.754c-28.104,0-50.974,22.869-50.974,50.974c0,28.11,22.869,50.979,50.974,50.979
		c28.105,0,50.974-22.869,50.974-50.979C469.368,77.623,446.5,54.754,418.394,54.754z M418.394,147.148
		c-22.841,0-41.415-18.582-41.415-41.42c0-22.836,18.574-41.416,41.415-41.416c22.831,0,41.416,18.58,41.416,41.416
		C459.81,128.566,441.225,147.148,418.394,147.148z M339.763,80.871c-0.028-0.31,0.01-0.63,0.112-0.94
		c0.401-1.258,1.75-1.942,3.006-1.536l13.062,4.245c1.256,0.411,1.941,1.759,1.531,3.01c-0.327,1.013-1.261,1.654-2.269,1.654
		c0,0,0,0-0.009,0l0,0c-0.248,0-0.5-0.04-0.738-0.114l-13.058-4.245C340.463,82.635,339.842,81.795,339.763,80.871z M369.212,41.945
		c-0.774-1.064-0.541-2.56,0.532-3.334l0,0l0,0c1.064-0.774,2.562-0.546,3.337,0.525l8.074,11.112
		c0.774,1.069,0.541,2.56-0.532,3.335c-0.42,0.306-0.91,0.459-1.4,0.459c-0.737,0-1.465-0.34-1.932-0.984l0,0l-0.01-0.005
		L369.212,41.945z M455.843,53.363c-1.064-0.78-1.298-2.275-0.523-3.342l8.069-11.11c0.775-1.076,2.278-1.3,3.342-0.525
		c1.06,0.772,1.293,2.269,0.519,3.335l-8.065,11.112c-0.471,0.644-1.194,0.982-1.932,0.982
		C456.757,53.816,456.272,53.669,455.843,53.363z M479.188,85.288c-0.411-1.258,0.284-2.606,1.53-3.013l13.054-4.251
		c1.265-0.411,2.609,0.285,3.02,1.533c0.401,1.258-0.284,2.604-1.54,3.01l-13.059,4.254c-0.242,0.082-0.494,0.114-0.732,0.114
		C480.443,86.936,479.514,86.296,479.188,85.288z M496.914,130.545c-0.322,1.008-1.27,1.654-2.278,1.654
		c-0.242,0-0.499-0.04-0.737-0.114l-13.059-4.245c-1.26-0.406-1.937-1.755-1.535-3.01c0.411-1.253,1.773-1.946,3.015-1.536
		l13.055,4.245C496.633,127.94,497.315,129.294,496.914,130.545z M467.567,168.53c0.774,1.064,0.541,2.56-0.532,3.334
		c-0.42,0.306-0.91,0.46-1.4,0.46c-0.737,0-1.466-0.341-1.932-0.985l-8.069-11.107c-0.775-1.069-0.542-2.56,0.522-3.335
		c1.063-0.77,2.562-0.546,3.337,0.525L467.567,168.53z M416.192,185.343v-13.73c0-1.321,1.063-2.39,2.389-2.39
		c0.322,0,0.645,0.065,0.929,0.187c0.864,0.361,1.461,1.213,1.461,2.203v13.73c0,1.319-1.068,2.39-2.39,2.39
		C417.265,187.733,416.192,186.667,416.192,185.343z M369.096,170.532c-0.047-0.301-0.037-0.611,0.042-0.912
		c0.065-0.301,0.195-0.598,0.387-0.866l8.069-11.112c0.784-1.076,2.278-1.3,3.342-0.525c0.527,0.387,0.859,0.957,0.952,1.563
		c0.094,0.602-0.042,1.246-0.434,1.778l-8.065,11.105c-0.467,0.646-1.194,0.985-1.932,0.985c-0.495,0-0.98-0.143-1.409-0.455
		C369.516,171.702,369.194,171.139,369.096,170.532z M357.601,125.187c0.401,1.258-0.285,2.607-1.54,3.013l0,0v0.004l-13.059,4.243
		c-0.243,0.082-0.495,0.114-0.732,0.114c-1.009,0-1.951-0.639-2.283-1.647c-0.098-0.315-0.13-0.637-0.098-0.947
		c0.075-0.922,0.695-1.762,1.643-2.068l13.055-4.249C355.846,123.243,357.2,123.941,357.601,125.187z M415.809,38.862v-13.73
		c0-1.318,1.063-2.39,2.389-2.39l0,0l0,0c1.326,0,2.39,1.071,2.39,2.39v13.74c0,1.321-1.063,2.39-2.39,2.39
		c-1.315,0-2.389-1.069-2.389-2.39V38.862z M357.754,172.603c-1.124-2.625-3.71-4.327-6.58-4.327L19.431,132.241
		c-0.037,0-0.067,0.01-0.096,0.01c-0.529,0.009-1.076,0.077-1.596,0.205c-0.138,0.035-0.283,0.096-0.411,0.135
		c-0.383,0.115-0.744,0.257-1.108,0.439c-0.177,0.086-0.333,0.187-0.501,0.287c-0.149,0.096-0.306,0.158-0.46,0.264l-12.263,8.76
		c-2.772,1.983-3.762,5.647-2.371,8.76L105.896,402.54c1.146,2.576,3.713,4.242,6.541,4.242h19.389h2.91h121.631l7,23.667
		l-52.624,35.082c-1.86,1.241-2.616,3.599-1.822,5.68c0.719,1.872,2.511,3.076,4.464,3.076c0.224,0,0.459-0.015,0.684-0.052
		l104.917-14.981l78.169-16.073c2.361-0.485,3.985-2.65,3.799-5.055c-0.187-2.398-2.124-4.289-4.532-4.4l-73.618-3.491v-23.452
		h124.382c0.042,0.005,0.08,0.005,0.099,0c3.967,0,7.168-3.206,7.168-7.169c0-1.409-0.401-2.729-1.11-3.841L357.754,172.603z
		 M419.178,352.467l-58.544-2.124l-10.646-7.396l-10.604-25.104l5.671-7.192l57.456,2.89L419.178,352.467z M279.624,347.394
		l-10.007-6.954l-11.294-26.724l5.638-7.149l58.194,2.926l11.761,7.678l10.939,25.893l-6.034,6.478L279.624,347.394z
		 M320.217,304.615l-58.712-2.959l-11.721-8.148l-11.901-28.152l5.74-7.275l59.12,3.831l10.791,7.048l12.451,29.468L320.217,304.615
		z M299.561,256.913l-59.297-3.836l-10.725-7.456l-12.3-29.12l4.917-6.235l61.193,4.793l10.248,6.681l12.079,28.607L299.561,256.913
		z M224.47,245.917l-5.388,5.787l-65.897-4.273l-11.294-7.852l-12.664-29.912l4.966-6.284l68.221,5.337l8.755,5.713L224.47,245.917z
		 M155.899,252.4l64.646,4.182l11.651,7.611l12.704,30.062l-5.846,6.271l-66.251-3.332l-9.243-6.422l-13.243-31.288L155.899,252.4z
		 M177.209,302.198l65.087,3.275l10.144,6.628l12.36,29.216l-4.998,5.357l-66.24-2.408l-10.419-7.243l-11.665-27.563
		L177.209,302.198z M400.426,308.652l-59.024-2.973l-10.128-7.048l-12.2-28.856l5.115-6.478l58.433,3.785L400.426,308.652z
		 M380.516,262.154l-58.124-3.762l-11.499-7.992l-11.5-27.23l5.097-6.464l58.534,4.585L380.516,262.154z M346.465,182.613
		l14.436,33.722l-57.489-4.497l-12.476-8.669l-11.724-27.744L346.465,182.613z M273.78,174.843l12.2,28.87l-5.876,6.294
		l-57.699-4.511l-13.917-9.668l-12.377-29.291L273.78,174.843z M190.667,165.959l13.133,31.064l-6.093,6.541l-65.626-5.136
		l-10.802-7.498l-14.365-33.927L190.667,165.959z M31.83,148.968l69.649,7.451l14.347,33.869l-5.964,6.406l-59.895-4.69
		L31.83,148.968z M52.059,196.96l59.906,4.683l11.985,7.829l12.946,30.567l-5.572,5.979l-60.227-3.895L52.059,196.96z
		 M73.173,247.044l60.327,3.904l11.077,7.229l13.507,31.899l-5.668,6.081l-59.815-3.01L73.173,247.044z M94.669,298.034
		l58.835,2.969l12.732,8.308l12.003,28.348l-5.454,5.853l-59.876-2.18L94.669,298.034z M134.449,392.44l-19.487-46.251l59.738,2.166
		l11.145,7.271l15.588,36.81h-66.984V392.44z M206.609,392.44l-14.953-35.33l6.238-7.906l62.819,2.282l11.574,7.557l14.122,33.397
		H206.609z M233.569,461.798l35.834-23.886l31.651,14.248L233.569,461.798z M313.245,447.176l-19.41-8.746l19.41,0.915V447.176z
		 M313.245,429.786l-40.669-1.932l-6.239-21.072h46.904v23.004H313.245z M358.021,441.473l-35.218,7.243v-8.904L358.021,441.473z
		 M291.599,392.44l-13.376-31.652l6.646-8.429l56.938,2.077l10.842,7.07l13.063,30.934H291.599z M370.897,392.44l-12.643-29.944
		l5.731-7.257l57.27,2.086l15.032,35.115H370.897z"/>
</g>
<g>
</g>
<g>
</g>
<g>
</g>
<g>
</g>
<g>
</g>
<g>
</g>
<g>
</g>
<g>
</g>
<g>
</g>
<g>
</g>
<g>
</g>
<g>
</g>
<g>
</g>
<g>
</g>
<g>
</g>
</svg>
