<?xml version="1.0" encoding="UTF-8" standalone="no"?>
<!-- Generator: Adobe Illustrator 16.0.0, SVG Export Plug-In . SVG Version: 6.00 Build 0)  -->

<svg
   version="1.1"
   id="Capa_1"
   x="0px"
   y="0px"
   width="106.583px"
   height="106.583px"
   viewBox="0 0 106.583 106.583"
   style="enable-background:new 0 0 106.583 106.583;"
   xml:space="preserve"
   sodipodi:docname="solarEnergyColor.svg"
   inkscape:version="1.1.2 (0a00cf5339, 2022-02-04)"
   xmlns:inkscape="http://www.inkscape.org/namespaces/inkscape"
   xmlns:sodipodi="http://sodipodi.sourceforge.net/DTD/sodipodi-0.dtd"
   xmlns="http://www.w3.org/2000/svg"
   xmlns:svg="http://www.w3.org/2000/svg"><defs
   id="defs20492">
	

		
		
		
		
		
		
		
		
		
		
		
		
		
		
		
		
		
	</defs><sodipodi:namedview
   id="namedview20490"
   pagecolor="#ffffff"
   bordercolor="#666666"
   borderopacity="1.0"
   inkscape:pageshadow="2"
   inkscape:pageopacity="0.0"
   inkscape:pagecheckerboard="0"
   showgrid="false"
   inkscape:zoom="1.1399567"
   inkscape:cx="-151.32154"
   inkscape:cy="-11.842556"
   inkscape:window-width="1366"
   inkscape:window-height="632"
   inkscape:window-x="0"
   inkscape:window-y="27"
   inkscape:window-maximized="1"
   inkscape:current-layer="Capa_1" />
<polygon
   points="61.4,33.937 61.4,44.745 79.76,44.745 76.698,33.937 "
   id="polygon20421"
   style="fill:#31c0d8;fill-opacity:1" /><polygon
   points="61.486,59.051 82.905,59.051 79.838,48.249 61.486,48.249 "
   id="polygon20423"
   style="fill:#31c0d8;fill-opacity:1" /><path
   d="M 79.401,27.139 H 12.688 c -1.934,0 -3.511,1.273 -3.511,2.828 L 0,77.449 c 0,1.561 1.572,2.83 3.511,2.83 h 5.314 4.603 65.575 4.292 7.727 c 1.938,0 3.512,-1.27 3.512,-2.83 L 82.905,29.967 c 0,-1.555 -1.571,-2.828 -3.504,-2.828 z M 4.211,76.883 13.389,30.535 h 65.307 l 11.629,46.348 z"
   id="path20425"
   style="fill:#231f20;fill-opacity:1" /><polygon
   points="33.048,33.937 16.529,33.937 13.466,44.745 33.048,44.745 "
   id="polygon20427"
   style="fill:#31c0d8;fill-opacity:1" /><rect
   x="37.521"
   y="33.937"
   width="19.577999"
   height="10.804"
   id="rect20429"
   style="fill:#31c0d8;fill-opacity:1" /><polygon
   points="10.487,59.051 33.131,59.051 33.131,48.249 13.55,48.249 "
   id="polygon20431"
   style="fill:#31c0d8;fill-opacity:1" /><rect
   x="37.594002"
   y="48.249001"
   width="19.583"
   height="10.803"
   id="rect20433"
   style="fill:#31c0d8;fill-opacity:1" /><polygon
   points="8.042,73.479 33.131,73.479 33.131,62.671 11.101,62.671 "
   id="polygon20435"
   style="fill:#31c0d8;fill-opacity:1" /><rect
   x="37.594002"
   y="62.671001"
   width="19.583"
   height="10.808"
   id="rect20437"
   style="fill:#31c0d8;fill-opacity:1" /><polygon
   points="61.486,62.671 61.486,73.479 85.964,73.479 82.905,62.671 "
   id="polygon20439"
   style="fill:#31c0d8;fill-opacity:1" /><polygon
   points="33.983,103.409 60.148,103.409 60.148,98.173 50.819,98.173 50.819,82.793 43.078,82.793 43.078,98.173 33.983,98.173 "
   id="polygon20441"
   style="fill:#afb6bb;fill-opacity:1" /><path
   d="m 81.557,24.858 c 1.93,0 3.504,1.268 3.504,2.829 l 3.271,13.352 c 3.196,-2.658 5.28,-6.617 5.28,-11.099 0,-8.001 -6.484,-14.487 -14.492,-14.487 -6.205,0 -11.461,3.925 -13.518,9.409 h 15.954 v -0.004 z"
   id="path20443"
   style="fill:#fec232;fill-opacity:1" /><path
   d="m 106.368,29.61 -7.953,-2.137 c -0.1,-0.029 -0.213,-0.007 -0.295,0.06 -0.085,0.063 -0.13,0.161 -0.13,0.269 v 4.276 c 0,0.104 0.045,0.207 0.13,0.27 0.082,0.067 0.195,0.084 0.295,0.055 l 7.953,-2.137 c 0.287,-0.081 0.287,-0.576 0,-0.656 z"
   id="path20445"
   style="fill:#fec232;fill-opacity:1" /><path
   d="m 76.981,11.77 h 4.281 c 0.106,0 0.205,-0.049 0.268,-0.133 0.062,-0.083 0.085,-0.19 0.062,-0.291 L 79.449,3.394 C 79.374,3.1 78.878,3.1 78.799,3.394 l -2.139,7.952 c -0.03,0.101 -0.007,0.21 0.059,0.291 0.061,0.084 0.163,0.133 0.262,0.133 z"
   id="path20447"
   style="fill:#fec232;fill-opacity:1" /><path
   d="m 93.48,18.603 c 0.075,0.074 0.178,0.11 0.284,0.096 0.099,-0.01 0.194,-0.073 0.249,-0.166 l 4.106,-7.134 c 0.151,-0.264 -0.198,-0.614 -0.465,-0.46 l -7.129,4.111 c -0.089,0.048 -0.153,0.144 -0.167,0.245 -0.014,0.104 0.023,0.21 0.096,0.284 z"
   id="path20449"
   style="fill:#fec232;fill-opacity:1" /><path
   d="M 92.371,41.343 C 92.32,41.256 92.227,41.193 92.128,41.179 92.023,41.163 91.92,41.2 91.845,41.273 l -2.775,2.775 0.249,1.033 6.701,3.858 c 0.264,0.15 0.616,-0.2 0.465,-0.462 z"
   id="path20451"
   style="fill:#fec232;fill-opacity:1" /><path
   d="m 62.848,18.708 c 0.096,0.007 0.201,-0.032 0.273,-0.106 l 3.025,-3.023 c 0.071,-0.074 0.113,-0.176 0.099,-0.277 0,-0.097 -0.062,-0.181 -0.144,-0.228 L 59.504,11.5 c -0.239,-0.13 -0.596,0.217 -0.462,0.462 l 3.576,6.596 c 0.052,0.091 0.131,0.14 0.23,0.15 z"
   id="path20453"
   style="fill:#fec232;fill-opacity:1" />
<g
   id="g20459">
</g>
<g
   id="g20461">
</g>
<g
   id="g20463">
</g>
<g
   id="g20465">
</g>
<g
   id="g20467">
</g>
<g
   id="g20469">
</g>
<g
   id="g20471">
</g>
<g
   id="g20473">
</g>
<g
   id="g20475">
</g>
<g
   id="g20477">
</g>
<g
   id="g20479">
</g>
<g
   id="g20481">
</g>
<g
   id="g20483">
</g>
<g
   id="g20485">
</g>
<g
   id="g20487">
</g>
</svg>
