<?xml version="1.0" encoding="iso-8859-1"?>
<!-- Generator: Adobe Illustrator 19.0.0, SVG Export Plug-In . SVG Version: 6.00 Build 0)  -->
<svg version="1.1" id="Layer_1" xmlns="http://www.w3.org/2000/svg" xmlns:xlink="http://www.w3.org/1999/xlink" x="0px" y="0px"
	 viewBox="0 0 483.956 483.956" style="enable-background:new 0 0 483.956 483.956;" xml:space="preserve">
<g>
	<g id="XMLID_24_">
		<g>
			<rect x="132.222" y="34.939" style="fill:#AFB6BB;" width="59.867" height="29.933"/>
			<rect x="386.656" y="319.306" style="fill:#E7ECED;" width="29.933" height="129.711"/>
			<rect x="67.367" y="319.306" style="fill:#E7ECED;" width="29.933" height="129.711"/>
			<path style="fill:#AFB6BB;" d="M366.7,284.384h93.592c6.186,0,11.175,3.093,11.175,6.985v20.953
				c0,3.891-4.989,6.984-11.175,6.984h-43.703h-29.933H97.3H67.367H23.664c-6.186,0-11.175-3.093-11.175-6.984v-20.953
				c0-3.891,4.989-6.985,11.175-6.985h93.592H276.9h69.844H366.7z"/>
			<rect x="276.9" y="64.873" style="fill:#31C0D8;" width="69.844" height="219.511"/>
			<path style="fill:#E7ECED;" d="M276.9,64.873v219.511H117.256C56.89,284.384,7.5,234.994,7.5,174.628
				c0-30.133,12.372-57.672,32.228-77.527c19.856-19.856,47.395-32.228,77.527-32.228h14.967h59.867H276.9z"/>
			<path style="fill:#E7ECED;" d="M366.7,64.873c60.366,0,109.756,49.39,109.756,109.756c0,30.133-12.372,57.672-32.228,77.527
				c-19.856,19.856-47.394,32.228-77.527,32.228h-19.956V64.873H366.7z"/>
		</g>
		<g>
			<rect x="87.322" y="107.262" style="fill:#231F20;" width="149.666" height="15"/>
			<rect x="117.255" y="147.173" style="fill:#231F20;" width="119.733" height="15"/>
			<rect x="177.122" y="187.084" style="fill:#231F20;" width="59.867" height="15"/>
			<path style="fill:#231F20;" d="M460.292,276.884h-36.28c9.225-5.21,17.809-11.714,25.519-19.425
				c22.199-22.2,34.425-51.616,34.425-82.83c0-64.655-52.601-117.256-117.256-117.256H199.589V27.439h-74.867v29.933h-7.467
				c-31.215,0-60.631,12.226-82.831,34.425C12.226,113.997,0,143.413,0,174.628c0,43.847,24.196,82.143,59.933,102.255H23.664
				c-10.646,0-18.675,6.227-18.675,14.484v20.954c0,8.257,8.029,14.484,18.675,14.484h36.203v114.711h-42.39v15h449v-15h-42.389
				v-114.71h36.203c10.647,0,18.675-6.227,18.675-14.484v-20.954C478.967,283.111,470.939,276.884,460.292,276.884z
				 M468.956,174.628c0,27.208-10.666,52.857-30.032,72.224c-19.365,19.366-45.016,30.031-72.224,30.031h-12.456V72.372H366.7
				C423.084,72.372,468.956,118.244,468.956,174.628z M314.333,164.65V72.372h24.911v204.511H284.4V72.372h14.933v92.278H314.333z
				 M139.722,42.439h44.867v14.933h-44.867V42.439z M15,174.628c0-27.208,10.665-52.858,30.031-72.224s45.016-30.032,72.224-30.032
				H269.4v204.511H117.255C60.872,276.884,15,231.012,15,174.628z M104.8,326.806h274.356v114.711H104.8V326.806z M89.8,441.517
				H74.867V326.806H89.8V441.517z M394.155,441.517V326.806h14.934v114.711H394.155z M463.967,311.061
				c-0.689,0.345-1.965,0.745-3.675,0.745H23.664c-1.711,0-2.987-0.4-3.675-0.745v-18.432c0.688-0.345,1.965-0.745,3.675-0.745
				h436.628c1.71,0,2.986,0.4,3.675,0.745L463.967,311.061L463.967,311.061z"/>
		</g>
	</g>
</g>
<g>
</g>
<g>
</g>
<g>
</g>
<g>
</g>
<g>
</g>
<g>
</g>
<g>
</g>
<g>
</g>
<g>
</g>
<g>
</g>
<g>
</g>
<g>
</g>
<g>
</g>
<g>
</g>
<g>
</g>
</svg>
