<?xml version="1.0" encoding="UTF-8" standalone="no"?>
<!-- Generator: Adobe Illustrator 17.1.0, SVG Export Plug-In . SVG Version: 6.00 Build 0)  -->

<svg
   version="1.1"
   id="Capa_1"
   x="0px"
   y="0px"
   viewBox="0 0 296 296"
   style="enable-background:new 0 0 296 296;"
   xml:space="preserve"
   sodipodi:docname="windmillColor2.svg"
   inkscape:version="1.3.2 (1:1.3.2+202311252150+091e20ef0f)"
   xmlns:inkscape="http://www.inkscape.org/namespaces/inkscape"
   xmlns:sodipodi="http://sodipodi.sourceforge.net/DTD/sodipodi-0.dtd"
   xmlns:xlink="http://www.w3.org/1999/xlink"
   xmlns="http://www.w3.org/2000/svg"
   xmlns:svg="http://www.w3.org/2000/svg"><defs
   id="defs985"><linearGradient
   id="linearGradient7"
   inkscape:collect="always"><stop
     style="stop-color:#1b89a9;stop-opacity:1;"
     offset="0"
     id="stop7" /><stop
     style="stop-color:#1b89a9;stop-opacity:0;"
     offset="1"
     id="stop8" /></linearGradient><linearGradient
   id="linearGradient5"
   inkscape:collect="always"><stop
     style="stop-color:#69cbe7;stop-opacity:1;"
     offset="0"
     id="stop5" /><stop
     style="stop-color:#69cbe7;stop-opacity:0;"
     offset="1"
     id="stop6" /></linearGradient><linearGradient
   id="linearGradient3"
   inkscape:collect="always"><stop
     style="stop-color:#4cc1e5;stop-opacity:0.84313725;"
     offset="0"
     id="stop3" /><stop
     style="stop-color:#4cc1e5;stop-opacity:0;"
     offset="1"
     id="stop4" /></linearGradient><linearGradient
   id="linearGradient1"
   inkscape:collect="always"><stop
     style="stop-color:#47bfe4;stop-opacity:1;"
     offset="0"
     id="stop1" /><stop
     style="stop-color:#69cbe7;stop-opacity:0;"
     offset="1"
     id="stop2" /></linearGradient><inkscape:perspective
   sodipodi:type="inkscape:persp3d"
   inkscape:vp_x="0 : 148 : 1"
   inkscape:vp_y="0 : 1000 : 0"
   inkscape:vp_z="296 : 148 : 1"
   inkscape:persp3d-origin="148 : 98.666667 : 1"
   id="perspective3" />
	
	
	
	
	
<clipPath
   clipPathUnits="userSpaceOnUse"
   id="clipPath11"><rect
     style="fill:none;fill-opacity:1;stroke:#000000;stroke-width:3;stroke-dasharray:none;stroke-opacity:1"
     id="rect12"
     width="49.12891"
     height="46.563309"
     x="-185.44182"
     y="115.255"
     rx="0"
     ry="14.023301"
     transform="matrix(0.9999521,-0.00978802,0.0100807,0.99994919,0,0)" /></clipPath><clipPath
   clipPathUnits="userSpaceOnUse"
   id="clipPath11-2"><rect
     style="fill:none;fill-opacity:1;stroke:#000000;stroke-width:3;stroke-dasharray:none;stroke-opacity:1"
     id="rect12-7"
     width="49.12891"
     height="46.563309"
     x="-185.44182"
     y="115.255"
     rx="0"
     ry="14.023301"
     transform="matrix(0.9999521,-0.00978802,0.0100807,0.99994919,0,0)" /></clipPath><clipPath
   clipPathUnits="userSpaceOnUse"
   id="clipPath11-6"><rect
     style="fill:none;fill-opacity:1;stroke:#000000;stroke-width:3;stroke-dasharray:none;stroke-opacity:1"
     id="rect12-0"
     width="49.12891"
     height="46.563309"
     x="-185.44182"
     y="115.255"
     rx="0"
     ry="14.023301"
     transform="matrix(0.9999521,-0.00978802,0.0100807,0.99994919,0,0)" /></clipPath><clipPath
   clipPathUnits="userSpaceOnUse"
   id="clipPath11-2-3"><rect
     style="fill:none;fill-opacity:1;stroke:#000000;stroke-width:3;stroke-dasharray:none;stroke-opacity:1"
     id="rect12-7-6"
     width="49.12891"
     height="46.563309"
     x="-185.44182"
     y="115.255"
     rx="0"
     ry="14.023301"
     transform="matrix(0.9999521,-0.00978802,0.0100807,0.99994919,0,0)" /></clipPath><clipPath
   clipPathUnits="userSpaceOnUse"
   id="clipPath11-7"><rect
     style="fill:none;fill-opacity:1;stroke:#000000;stroke-width:3;stroke-dasharray:none;stroke-opacity:1"
     id="rect12-5"
     width="49.12891"
     height="46.563309"
     x="-185.44182"
     y="115.255"
     rx="0"
     ry="14.023301"
     transform="matrix(0.9999521,-0.00978802,0.0100807,0.99994919,0,0)" /></clipPath><clipPath
   clipPathUnits="userSpaceOnUse"
   id="clipPath11-6-3"><rect
     style="fill:none;fill-opacity:1;stroke:#000000;stroke-width:3;stroke-dasharray:none;stroke-opacity:1"
     id="rect12-0-5"
     width="49.12891"
     height="46.563309"
     x="-185.44182"
     y="115.255"
     rx="0"
     ry="14.023301"
     transform="matrix(0.9999521,-0.00978802,0.0100807,0.99994919,0,0)" /></clipPath><linearGradient
   inkscape:collect="always"
   xlink:href="#linearGradient1"
   id="linearGradient2"
   x1="59.979153"
   y1="176.91754"
   x2="115.34962"
   y2="141.01706"
   gradientUnits="userSpaceOnUse" /><linearGradient
   inkscape:collect="always"
   xlink:href="#linearGradient3"
   id="linearGradient4"
   x1="122.932"
   y1="148.4243"
   x2="208.10895"
   y2="198.82585"
   gradientUnits="userSpaceOnUse" /><linearGradient
   inkscape:collect="always"
   xlink:href="#linearGradient5"
   id="linearGradient6"
   x1="99.005089"
   y1="109.3624"
   x2="139.10382"
   y2="88.048363"
   gradientUnits="userSpaceOnUse" /><linearGradient
   inkscape:collect="always"
   xlink:href="#linearGradient7"
   id="linearGradient8"
   x1="108.43467"
   y1="265.38318"
   x2="179.13324"
   y2="238.30115"
   gradientUnits="userSpaceOnUse" /><linearGradient
   inkscape:collect="always"
   xlink:href="#linearGradient7"
   id="linearGradient9"
   gradientUnits="userSpaceOnUse"
   x1="108.43467"
   y1="265.38318"
   x2="179.13324"
   y2="238.30115"
   gradientTransform="matrix(0.67936019,0,0,0.67936019,158.58521,25.150793)" /><linearGradient
   inkscape:collect="always"
   xlink:href="#linearGradient5"
   id="linearGradient10"
   gradientUnits="userSpaceOnUse"
   x1="99.005089"
   y1="109.3624"
   x2="139.10382"
   y2="88.048363"
   gradientTransform="matrix(0.67936019,0,0,0.67936019,158.58521,25.150793)" /><linearGradient
   inkscape:collect="always"
   xlink:href="#linearGradient3"
   id="linearGradient11"
   gradientUnits="userSpaceOnUse"
   x1="122.932"
   y1="148.4243"
   x2="208.10895"
   y2="198.82585"
   gradientTransform="matrix(0.67936019,0,0,0.67936019,158.58521,25.150793)" /><linearGradient
   inkscape:collect="always"
   xlink:href="#linearGradient1"
   id="linearGradient12"
   gradientUnits="userSpaceOnUse"
   x1="59.979153"
   y1="176.91754"
   x2="115.34962"
   y2="141.01706"
   gradientTransform="matrix(0.67936019,0,0,0.67936019,158.58521,25.150793)" /></defs><sodipodi:namedview
   id="namedview983"
   pagecolor="#ffffff"
   bordercolor="#666666"
   borderopacity="1.0"
   inkscape:pageshadow="2"
   inkscape:pageopacity="0.0"
   inkscape:pagecheckerboard="0"
   showgrid="false"
   inkscape:zoom="1.0726046"
   inkscape:cx="-198.58204"
   inkscape:cy="94.629469"
   inkscape:window-width="1920"
   inkscape:window-height="949"
   inkscape:window-x="1920"
   inkscape:window-y="27"
   inkscape:window-maximized="1"
   inkscape:current-layer="Capa_1"
   inkscape:showpageshadow="2"
   inkscape:deskcolor="#d1d1d1" />
<path
   d="m 104.25158,171.53724 -9.664359,87.06731 c -24.735127,3.48428 -41.952404,15.26867 -41.952404,30.10725 h 6.233063 6.233062 89.860498 6.23306 6.23306 c 0,-14.84404 -17.22974,-26.63232 -41.97967,-30.11114 l -9.73916,-87.04005 c -1.82395,0.43398 -3.72347,0.67006 -5.67832,0.67006 -1.99068,7.8e-4 -3.92449,-0.24387 -5.77883,-0.69343 z"
   id="path940"
   style="fill:url(#linearGradient8);fill-opacity:1;stroke:#000000;stroke-width:3.89567;stroke-dasharray:none;stroke-opacity:1" /><path
   d="M 121.46923,126.15181 V 71.558533 c 0,-6.765687 -5.58598,-12.249744 -12.4774,-12.249744 -6.89143,0 -12.477399,5.484057 -12.477399,12.249744 v 55.508177 c 3.899179,-2.41932 8.376229,-3.82957 13.257229,-3.82957 4.23218,0 8.57821,1.05654 11.69757,2.91467 z"
   id="path942"
   style="fill:url(#linearGradient6);fill-opacity:1;stroke:#000000;stroke-width:3.89567;stroke-dasharray:none;stroke-opacity:1" /><path
   d="m 178.96185,169.38294 -44.74482,-25.83293 c 0.22985,1.34712 0.35606,2.72775 0.35606,4.13953 0,7.86768 -3.72502,14.87677 -9.49918,19.3708 l 41.42181,23.9147 c 1.96342,1.13364 4.10603,1.67202 6.22138,1.67202 4.30782,0 8.498,-2.23611 10.80735,-6.2354 3.4422,-5.96192 1.39932,-13.58652 -4.5626,-17.02872 z"
   id="path946"
   style="fill:url(#linearGradient4);fill-opacity:0.84313726;stroke:#000000;stroke-width:3.89567;stroke-dasharray:none;stroke-opacity:1" /><circle
   cx="110.03041"
   cy="147.68877"
   r="12.076558"
   id="circle948"
   style="fill:#647678;fill-opacity:1;stroke:#000000;stroke-width:3.89567;stroke-dasharray:none;stroke-opacity:1" />
<g
   id="g952">
</g>
<g
   id="g954">
</g>
<g
   id="g956">
</g>
<g
   id="g958">
</g>
<g
   id="g960">
</g>
<g
   id="g962">
</g>
<g
   id="g964">
</g>
<g
   id="g966">
</g>
<g
   id="g968">
</g>
<g
   id="g970">
</g>
<g
   id="g972">
</g>
<g
   id="g974">
</g>
<g
   id="g976">
</g>
<g
   id="g978">
</g>
<g
   id="g980">
</g>
<path
   d="m 85.487731,147.68877 c 0,-1.4118 0.12622,-2.79242 0.35606,-4.13954 l -44.744814,25.83293 c -5.961924,3.44221 -8.00481,11.0668 -4.562601,17.02872 2.309349,3.99929 6.499525,6.23541 10.80735,6.23541 2.115346,0 4.25874,-0.53917 6.221376,-1.67202 l 41.421819,-23.9147 c -5.77416,-4.49404 -9.49919,-11.50312 -9.49919,-19.3708 z"
   id="path944"
   style="fill:url(#linearGradient2);fill-opacity:1;stroke:#000000;stroke-width:3.89567;stroke-dasharray:none;stroke-opacity:1" /><path
   d="m 229.40958,141.68636 -6.56558,59.15007 c -16.80406,2.36708 -28.50079,10.37292 -28.50079,20.45367 h 4.2345 4.23449 61.04764 4.2345 4.23449 c 0,-10.08445 -11.7052,-18.09294 -28.51932,-20.45631 l -6.61639,-59.13155 c -1.23912,0.29483 -2.52958,0.45521 -3.85763,0.45521 -1.35239,5.3e-4 -2.66614,-0.16567 -3.92591,-0.47109 z"
   id="path940-7"
   style="fill:url(#linearGradient9);fill-opacity:1;stroke:#000000;stroke-width:2.64656;stroke-dasharray:none;stroke-opacity:1" /><path
   d="M 241.10657,110.85331 V 73.764811 c 0,-4.596338 -3.79489,-8.321988 -8.47665,-8.321988 -4.68176,0 -8.47665,3.72565 -8.47665,8.321988 v 37.710049 c 2.64895,-1.64359 5.69048,-2.60166 9.00644,-2.60166 2.87517,0 5.82769,0.71777 7.94686,1.98011 z"
   id="path942-5"
   style="fill:url(#linearGradient10);fill-opacity:1;stroke:#000000;stroke-width:2.64656;stroke-dasharray:none;stroke-opacity:1" /><path
   d="m 280.16477,140.22282 -30.39785,-17.54987 c 0.15615,0.91518 0.24189,1.85313 0.24189,2.81224 0,5.34498 -2.53063,10.10668 -6.45336,13.15975 l 28.14033,16.24669 c 1.33387,0.77015 2.78947,1.13591 4.22655,1.13591 2.92656,0 5.77321,-1.51913 7.34209,-4.23609 2.33849,-4.05029 0.95064,-9.23014 -3.09965,-11.56863 z"
   id="path946-9"
   style="fill:url(#linearGradient11);fill-opacity:0.843137;stroke:#000000;stroke-width:2.64656;stroke-dasharray:none;stroke-opacity:1" /><circle
   cx="233.33549"
   cy="125.48466"
   r="8.2043333"
   id="circle948-2"
   style="fill:#647678;fill-opacity:1;stroke:#000000;stroke-width:2.64656;stroke-dasharray:none;stroke-opacity:1" /><path
   d="m 216.66217,125.48466 c 0,-0.95912 0.0857,-1.89706 0.2419,-2.81224 l -30.39785,17.54987 c -4.0503,2.3385 -5.43815,7.51834 -3.09965,11.56863 1.56888,2.71696 4.41552,4.23609 7.34209,4.23609 1.43707,0 2.89322,-0.36629 4.22655,-1.1359 l 28.14033,-16.2467 c -3.92273,-3.05307 -6.45337,-7.81476 -6.45337,-13.15975 z"
   id="path944-2"
   style="fill:url(#linearGradient12);fill-opacity:1;stroke:#000000;stroke-width:2.64656;stroke-dasharray:none;stroke-opacity:1" /></svg>
