<?xml version="1.0" encoding="UTF-8" standalone="no"?>
<!-- Generator: Adobe Illustrator 17.1.0, SVG Export Plug-In . SVG Version: 6.00 Build 0)  -->

<svg
   version="1.1"
   id="Capa_1"
   x="0px"
   y="0px"
   viewBox="0 0 296 296"
   style="enable-background:new 0 0 296 296;"
   xml:space="preserve"
   sodipodi:docname="windmillColor3.svg"
   inkscape:version="1.3.2 (1:1.3.2+202311252150+091e20ef0f)"
   xmlns:inkscape="http://www.inkscape.org/namespaces/inkscape"
   xmlns:sodipodi="http://sodipodi.sourceforge.net/DTD/sodipodi-0.dtd"
   xmlns="http://www.w3.org/2000/svg"
   xmlns:svg="http://www.w3.org/2000/svg"><defs
   id="defs985"><inkscape:perspective
   sodipodi:type="inkscape:persp3d"
   inkscape:vp_x="0 : 148 : 1"
   inkscape:vp_y="0 : 1000 : 0"
   inkscape:vp_z="296 : 148 : 1"
   inkscape:persp3d-origin="148 : 98.666667 : 1"
   id="perspective3" />
	
	
	
	
	
<clipPath
   clipPathUnits="userSpaceOnUse"
   id="clipPath11"><rect
     style="fill:none;fill-opacity:1;stroke:#000000;stroke-width:3;stroke-dasharray:none;stroke-opacity:1"
     id="rect12"
     width="49.12891"
     height="46.563309"
     x="-185.44182"
     y="115.255"
     rx="0"
     ry="14.023301"
     transform="matrix(0.9999521,-0.00978802,0.0100807,0.99994919,0,0)" /></clipPath><clipPath
   clipPathUnits="userSpaceOnUse"
   id="clipPath11-2"><rect
     style="fill:none;fill-opacity:1;stroke:#000000;stroke-width:3;stroke-dasharray:none;stroke-opacity:1"
     id="rect12-7"
     width="49.12891"
     height="46.563309"
     x="-185.44182"
     y="115.255"
     rx="0"
     ry="14.023301"
     transform="matrix(0.9999521,-0.00978802,0.0100807,0.99994919,0,0)" /></clipPath><clipPath
   clipPathUnits="userSpaceOnUse"
   id="clipPath11-6"><rect
     style="fill:none;fill-opacity:1;stroke:#000000;stroke-width:3;stroke-dasharray:none;stroke-opacity:1"
     id="rect12-0"
     width="49.12891"
     height="46.563309"
     x="-185.44182"
     y="115.255"
     rx="0"
     ry="14.023301"
     transform="matrix(0.9999521,-0.00978802,0.0100807,0.99994919,0,0)" /></clipPath><clipPath
   clipPathUnits="userSpaceOnUse"
   id="clipPath11-2-3"><rect
     style="fill:none;fill-opacity:1;stroke:#000000;stroke-width:3;stroke-dasharray:none;stroke-opacity:1"
     id="rect12-7-6"
     width="49.12891"
     height="46.563309"
     x="-185.44182"
     y="115.255"
     rx="0"
     ry="14.023301"
     transform="matrix(0.9999521,-0.00978802,0.0100807,0.99994919,0,0)" /></clipPath><clipPath
   clipPathUnits="userSpaceOnUse"
   id="clipPath11-7"><rect
     style="fill:none;fill-opacity:1;stroke:#000000;stroke-width:3;stroke-dasharray:none;stroke-opacity:1"
     id="rect12-5"
     width="49.12891"
     height="46.563309"
     x="-185.44182"
     y="115.255"
     rx="0"
     ry="14.023301"
     transform="matrix(0.9999521,-0.00978802,0.0100807,0.99994919,0,0)" /></clipPath><clipPath
   clipPathUnits="userSpaceOnUse"
   id="clipPath11-6-3"><rect
     style="fill:none;fill-opacity:1;stroke:#000000;stroke-width:3;stroke-dasharray:none;stroke-opacity:1"
     id="rect12-0-5"
     width="49.12891"
     height="46.563309"
     x="-185.44182"
     y="115.255"
     rx="0"
     ry="14.023301"
     transform="matrix(0.9999521,-0.00978802,0.0100807,0.99994919,0,0)" /></clipPath></defs><sodipodi:namedview
   id="namedview983"
   pagecolor="#ffffff"
   bordercolor="#666666"
   borderopacity="1.0"
   inkscape:pageshadow="2"
   inkscape:pageopacity="0.0"
   inkscape:pagecheckerboard="0"
   showgrid="false"
   inkscape:zoom="0.75844596"
   inkscape:cx="-408.73051"
   inkscape:cy="17.799554"
   inkscape:window-width="1920"
   inkscape:window-height="949"
   inkscape:window-x="1920"
   inkscape:window-y="27"
   inkscape:window-maximized="1"
   inkscape:current-layer="Capa_1"
   inkscape:showpageshadow="2"
   inkscape:deskcolor="#d1d1d1" />
<path
   d="m 104.25158,171.53724 -9.664359,87.06731 c -24.735127,3.48428 -41.952404,15.26867 -41.952404,30.10725 h 6.233063 6.233062 89.860498 6.23306 6.23306 c 0,-14.84404 -17.22974,-26.63232 -41.97967,-30.11114 l -9.73916,-87.04005 c -1.82395,0.43398 -3.72347,0.67006 -5.67832,0.67006 -1.99068,7.8e-4 -3.92449,-0.24387 -5.77883,-0.69343 z"
   id="path940"
   style="fill:#1b89a9;fill-opacity:1;stroke:#000000;stroke-width:3.89567;stroke-dasharray:none;stroke-opacity:1" /><path
   d="M 121.46923,126.15181 V 71.558533 c 0,-6.765687 -5.58598,-12.249744 -12.4774,-12.249744 -6.89143,0 -12.477399,5.484057 -12.477399,12.249744 v 55.508177 c 3.899179,-2.41932 8.376229,-3.82957 13.257229,-3.82957 4.23218,0 8.57821,1.05654 11.69757,2.91467 z"
   id="path942"
   style="fill:#69cbe7;fill-opacity:1;stroke:#000000;stroke-width:3.89567;stroke-dasharray:none;stroke-opacity:1" /><path
   d="m 178.96185,169.38294 -44.74482,-25.83293 c 0.22985,1.34712 0.35606,2.72775 0.35606,4.13953 0,7.86768 -3.72502,14.87677 -9.49918,19.3708 l 41.42181,23.9147 c 1.96342,1.13364 4.10603,1.67202 6.22138,1.67202 4.30782,0 8.498,-2.23611 10.80735,-6.2354 3.4422,-5.96192 1.39932,-13.58652 -4.5626,-17.02872 z"
   id="path946"
   style="fill:#69cbe7;fill-opacity:1;stroke:#000000;stroke-width:3.89567;stroke-dasharray:none;stroke-opacity:1" /><circle
   cx="110.03041"
   cy="147.68877"
   r="12.076558"
   id="circle948"
   style="fill:#647678;fill-opacity:1;stroke:#000000;stroke-width:3.89567;stroke-dasharray:none;stroke-opacity:1" />
<g
   id="g952">
</g>
<g
   id="g954">
</g>
<g
   id="g956">
</g>
<g
   id="g958">
</g>
<g
   id="g960">
</g>
<g
   id="g962">
</g>
<g
   id="g964">
</g>
<g
   id="g966">
</g>
<g
   id="g968">
</g>
<g
   id="g970">
</g>
<g
   id="g972">
</g>
<g
   id="g974">
</g>
<g
   id="g976">
</g>
<g
   id="g978">
</g>
<g
   id="g980">
</g>
<path
   d="m 85.487731,147.68877 c 0,-1.4118 0.12622,-2.79242 0.35606,-4.13954 l -44.744814,25.83293 c -5.961924,3.44221 -8.00481,11.0668 -4.562601,17.02872 2.309349,3.99929 6.499525,6.23541 10.80735,6.23541 2.115346,0 4.25874,-0.53917 6.221376,-1.67202 l 41.421819,-23.9147 c -5.77416,-4.49404 -9.49919,-11.50312 -9.49919,-19.3708 z"
   id="path944"
   style="fill:#69cbe7;fill-opacity:1;stroke:#000000;stroke-width:3.89567;stroke-dasharray:none;stroke-opacity:1" /><path
   d="m 221.54775,135.60087 -8.13808,73.31689 c -20.82874,2.93401 -35.32691,12.85731 -35.32691,25.35245 h 5.24868 5.24868 75.66895 5.24868 5.24868 c 0,-12.49974 -14.50867,-22.42631 -35.34987,-25.35573 l -8.20107,-73.29393 c -1.5359,0.36544 -3.13543,0.56424 -4.78155,0.56424 -1.6763,6.5e-4 -3.3047,-0.20536 -4.86619,-0.58392 z"
   id="path940-6"
   style="fill:#1b89a9;fill-opacity:1;stroke:#000000;stroke-width:3.28043;stroke-dasharray:none;stroke-opacity:1" /><path
   d="M 236.04624,97.383099 V 51.411661 c 0,-5.697191 -4.70379,-10.315158 -10.50686,-10.315158 -5.80308,0 -10.50686,4.617967 -10.50686,10.315158 v 46.741848 c 3.28339,-2.03724 7.05338,-3.22477 11.16353,-3.22477 3.5638,0 7.22347,0.88968 9.85019,2.45436 z"
   id="path942-2"
   style="fill:#69cbe7;fill-opacity:1;stroke:#000000;stroke-width:3.28043;stroke-dasharray:none;stroke-opacity:1" /><path
   d="M 284.45913,133.7868 246.7808,112.03363 c 0.19355,1.13437 0.29983,2.29696 0.29983,3.48578 0,6.62514 -3.13674,12.5273 -7.99899,16.31159 l 34.88012,20.13788 c 1.65334,0.95461 3.45757,1.40796 5.23884,1.40796 3.6275,0 7.15593,-1.88296 9.10056,-5.25065 2.89858,-5.02036 1.17833,-11.44082 -3.84203,-14.33939 z"
   id="path946-9"
   style="fill:#69cbe7;fill-opacity:1;stroke:#000000;stroke-width:3.28043;stroke-dasharray:none;stroke-opacity:1" /><circle
   cx="226.41394"
   cy="115.51874"
   r="10.169324"
   id="circle948-1"
   style="fill:#647678;fill-opacity:1;stroke:#000000;stroke-width:3.28043;stroke-dasharray:none;stroke-opacity:1" /><path
   d="m 205.74725,115.51876 c 0,-1.18884 0.10629,-2.35142 0.29983,-3.48579 l -37.67832,21.75317 c -5.02037,2.89859 -6.74062,9.31903 -3.84204,14.3394 1.94464,3.36768 5.47306,5.25066 9.10056,5.25066 1.78127,0 3.58617,-0.45402 5.23884,-1.40796 l 34.88013,-20.13789 c -4.86226,-3.7843 -7.999,-9.68644 -7.999,-16.31159 z"
   id="path944-2"
   style="fill:#69cbe7;fill-opacity:1;stroke:#000000;stroke-width:3.28043;stroke-dasharray:none;stroke-opacity:1" /></svg>
