<?xml version="1.0" encoding="iso-8859-1"?>
<!-- Generator: Adobe Illustrator 17.1.0, SVG Export Plug-In . SVG Version: 6.00 Build 0)  -->
<!DOCTYPE svg PUBLIC "-//W3C//DTD SVG 1.1//EN" "http://www.w3.org/Graphics/SVG/1.1/DTD/svg11.dtd">
<svg version="1.1" id="Capa_1" xmlns="http://www.w3.org/2000/svg" xmlns:xlink="http://www.w3.org/1999/xlink" x="0px" y="0px"
	 viewBox="0 0 396.457 396.457" style="enable-background:new 0 0 396.457 396.457;" xml:space="preserve">
<path d="M63.922,171.16c-0.957-6.543-1.441-13.225-1.441-19.858c0-53.915,31.913-102.739,81.301-124.386
	c4.554-1.996,9.861,0.079,11.856,4.63c1.995,4.553-0.078,9.861-4.63,11.856c-42.843,18.777-70.526,61.131-70.526,107.899
	c0,5.766,0.421,11.571,1.252,17.255c0.719,4.919-2.685,9.488-7.604,10.207c-0.441,0.064-0.88,0.096-1.313,0.096
	C68.422,178.859,64.577,175.638,63.922,171.16z M245.448,43.402c42.844,18.777,70.528,61.131,70.528,107.899
	c0,5.755-0.422,11.561-1.255,17.254c-0.72,4.919,2.685,9.488,7.603,10.208c0.442,0.064,0.881,0.096,1.313,0.096
	c4.395,0,8.24-3.222,8.895-7.698c0.958-6.554,1.444-13.235,1.444-19.859c0-53.915-31.913-102.739-81.304-124.386
	c-4.553-1.998-9.86,0.078-11.855,4.631C238.822,36.099,240.895,41.407,245.448,43.402z M179.552,97.575
	c0.491,0.081,0.979,0.119,1.461,0.119c4.332,0,8.15-3.136,8.872-7.55l8.344-51.081l8.344,51.081
	c0.801,4.904,5.422,8.244,10.333,7.431c4.905-0.801,8.232-5.427,7.431-10.333L211.319,7.549C210.608,3.196,206.848,0,202.437,0
	h-8.417c-4.411,0-8.171,3.196-8.882,7.549L172.12,87.242C171.319,92.148,174.646,96.774,179.552,97.575z M330.672,217.611
	l-62.507-51.119c-3.846-3.147-9.517-2.58-12.664,1.27c-3.146,3.848-2.578,9.518,1.27,12.664l40.061,32.763l-48.404-18.313
	c-4.65-1.76-9.844,0.584-11.603,5.233c-1.759,4.648,0.584,9.844,5.233,11.603l75.525,28.574c1.043,0.395,2.12,0.583,3.182,0.583
	c3.139,0,6.15-1.647,7.798-4.502l4.207-7.289C334.974,225.258,334.086,220.403,330.672,217.611z M281.583,387.457
	c0,4.971-4.029,9-9,9H123.872c-4.971,0-9-4.029-9-9s4.029-9,9-9h65.81c-0.293-0.889-0.453-1.839-0.453-2.826v-88.872
	c-17.141-1.109-33.661-5.4-49.222-12.798c-4.489-2.134-6.398-7.503-4.264-11.992c2.134-4.488,7.502-6.401,11.993-4.264
	c13.127,6.24,27.048,9.931,41.493,11.01v-80.842c-16.433-4.045-28.658-18.908-28.658-36.571c0-20.766,16.894-37.659,37.658-37.659
	s37.658,16.894,37.658,37.659c0,17.663-12.226,32.526-28.658,36.571v80.842c14.445-1.079,28.365-4.77,41.491-11.01
	c4.486-2.135,9.857-0.228,11.992,4.264c2.135,4.488,0.226,9.858-4.264,11.992c-15.559,7.397-32.078,11.688-49.22,12.798v88.872
	c0,0.987-0.159,1.938-0.453,2.826h65.808C277.554,378.457,281.583,382.486,281.583,387.457z M198.228,170.96
	c10.84,0,19.658-8.818,19.658-19.658s-8.818-19.659-19.658-19.659s-19.658,8.819-19.658,19.659S187.389,170.96,198.228,170.96z
	 M159.633,200.108c-1.759-4.649-6.954-6.991-11.602-5.233l-48.406,18.313l40.063-32.763c3.848-3.146,4.417-8.816,1.27-12.664
	c-3.145-3.847-8.816-4.416-12.664-1.27l-62.51,51.119c-3.415,2.792-4.302,7.647-2.097,11.467l4.208,7.289
	c1.647,2.854,4.658,4.501,7.796,4.501c1.062,0,2.139-0.188,3.182-0.583l75.526-28.574
	C159.049,209.952,161.392,204.757,159.633,200.108z"/>
<g>
</g>
<g>
</g>
<g>
</g>
<g>
</g>
<g>
</g>
<g>
</g>
<g>
</g>
<g>
</g>
<g>
</g>
<g>
</g>
<g>
</g>
<g>
</g>
<g>
</g>
<g>
</g>
<g>
</g>
</svg>
