<?xml version="1.0" encoding="UTF-8" standalone="no"?>
<svg
   height="24"
   viewBox="0 -960 960 960"
   width="24"
   version="1.1"
   id="svg1"
   sodipodi:docname="mapColor.svg"
   inkscape:version="1.3.2 (1:1.3.2+202311252150+091e20ef0f)"
   xmlns:inkscape="http://www.inkscape.org/namespaces/inkscape"
   xmlns:sodipodi="http://sodipodi.sourceforge.net/DTD/sodipodi-0.dtd"
   xmlns="http://www.w3.org/2000/svg"
   xmlns:svg="http://www.w3.org/2000/svg">
  <defs
     id="defs1" />
  <sodipodi:namedview
     id="namedview1"
     pagecolor="#ffffff"
     bordercolor="#000000"
     borderopacity="0.25"
     inkscape:showpageshadow="2"
     inkscape:pageopacity="0.0"
     inkscape:pagecheckerboard="0"
     inkscape:deskcolor="#d1d1d1"
     inkscape:zoom="8.0833333"
     inkscape:cx="21.525773"
     inkscape:cy="15.092783"
     inkscape:window-width="1920"
     inkscape:window-height="976"
     inkscape:window-x="0"
     inkscape:window-y="0"
     inkscape:window-maximized="1"
     inkscape:current-layer="svg1" />
  <path
     d="m600-120-240-84-186 72q-20 8-37-4.5T120-170v-560q0-13 7.5-23t20.5-15l212-72 240 84 186-72q20-8 37 4.5t17 33.5v560q0 13-7.5 23T812-192l-212 72Zm-40-98v-468l-160-56v468l160 56Zm80 0 120-40v-474l-120 46v468Zm-440-10 120-46v-468l-120 40v474Zm440-458v468-468Zm-320-56v468-468Z"
     id="path1"
     style="fill:#4285f4;fill-opacity:1" />
</svg>
