<svg xmlns="http://www.w3.org/2000/svg" height="40px" viewBox="0 -960 960 960" width="40px" fill="#4ebb72"><path d="M333.61-64.17q-36.6 0-62.56-25.86-25.96-25.85-25.96-62.29v-474.07q0-36.6 25.96-62.56t62.56-25.96h474.07q36.6 0 62.56 25.96t25.96 62.56v474.07q0 36.44-25.96 62.29-25.96 25.86-62.56 25.86H333.61Zm0-88.15h197.96v-114.64H333.61v114.64Zm276.68 0h197.39v-114.64H610.29v114.64ZM64.17-228.91v-578.77q0-36.6 25.86-62.56 25.85-25.96 62.29-25.96h578.77v88.52H152.32v578.77H64.17Zm269.44-116.77h197.96v-115.3H333.61v115.3Zm276.68 0h197.39v-115.3H610.29v115.3ZM333.61-539.71h474.07v-87.25H333.61v87.25Z"/></svg>