<svg xmlns="http://www.w3.org/2000/svg" height="40px" viewBox="0 -960 960 960" width="40px" fill="#4285f4"><path d="M306.67-80q-27 0-46.84-19.83Q240-119.67 240-146.67v-506.66q0-27 19.83-46.84Q279.67-720 306.67-720h506.66q27 0 46.84 19.83Q880-680.33 880-653.33v506.66q0 27-19.83 46.84Q840.33-80 813.33-80H306.67Zm0-66.67h220v-138h-220v138Zm286.66 0h220v-138h-220v138ZM80-242.67v-570.66q0-27 19.83-46.84Q119.67-880 146.67-880h570.66v66.67H146.67v570.66H80Zm226.67-108.66h220V-490h-220v138.67Zm286.66 0h220V-490h-220v138.67ZM306.67-556.67h506.66v-96.66H306.67v96.66Z"/></svg>